<svg width="85" height="67" viewBox="0 0 85 67" fill="none" xmlns="http://www.w3.org/2000/svg">
<g clip-path="url(#clip0_4470_3148)">
<path d="M70.9099 67H14.0901C6.30826 67 0 62.0276 0 55.8937V11.1063C0 4.97239 6.30826 0 14.0901 0H70.9099C78.6917 0 85 4.97239 85 11.1063V55.8937C85 62.0276 78.6917 67 70.9099 67Z" fill="#00AEEF"/>
<path d="M43.5027 28.2097C39.0804 28.2097 35.2321 30.1705 33.294 33.0491C31.3553 30.1705 27.5091 28.2097 23.0837 28.2097C20.5821 28.2076 18.1476 28.847 16.1476 30.0315V22.3571C16.1365 21.88 15.8879 21.4255 15.4556 21.0915C15.0232 20.7575 14.4417 20.5708 13.8363 20.5717C12.574 20.5717 11.5579 21.3655 11.5291 22.3571V37.4693H11.5314C11.6333 42.4312 16.7632 46.4284 23.0837 46.4284C27.5091 46.4284 31.3553 44.4658 33.294 41.59C35.2321 44.4658 39.0804 46.4284 43.5027 46.4284C49.883 46.4284 55.0587 42.3503 55.0587 37.3172C55.0587 32.2867 49.883 28.2097 43.5027 28.2097ZM23.0837 42.7814C19.2551 42.7814 16.1476 40.3367 16.1476 37.3185C16.1476 34.3014 19.2551 31.8565 23.0837 31.8565C26.9121 31.8565 30.0129 34.3014 30.0129 37.3172C30.0129 40.3359 26.9121 42.7814 23.0837 42.7814ZM43.5027 42.7814C39.673 42.7814 36.5679 40.3359 36.5679 37.3172C36.5679 34.3014 39.673 31.8565 43.5027 31.8565C47.3307 31.8565 50.4342 34.3014 50.4342 37.3172C50.4342 40.3359 47.3307 42.7814 43.5027 42.7814Z" fill="white"/>
<path d="M72.9904 43.3786L66.7091 37.3055L72.9981 31.2205C73.7933 30.4178 73.5652 29.2969 72.4675 28.7015C71.3685 28.1008 69.8265 28.2547 68.9762 29.0336V29.0325L63.5654 34.2596L58.1596 29.0325V29.0336C57.3179 28.2547 55.7663 28.1008 54.6706 28.7015C53.5749 29.2974 53.3458 30.4178 54.145 31.2205H54.1427L60.4207 37.3055L54.1427 43.3786H54.145C53.3458 44.1839 53.5749 45.3012 54.6706 45.8993C55.7663 46.4973 57.3179 46.345 58.1596 45.565L63.5654 40.3453L68.9685 45.565C69.8199 46.345 71.3612 46.4973 72.4602 45.8993C73.5582 45.3012 73.7873 44.1839 72.9904 43.3786Z" fill="white"/>
</g>
<defs>
<clipPath id="clip0_4470_3148">
<rect width="85" height="67" fill="white"/>
</clipPath>
</defs>
</svg>
