<svg width="24" height="24" viewBox="0 0 24 24" fill="none" xmlns="http://www.w3.org/2000/svg">
<g clip-path="url(#clip0_4470_3468)">
<path d="M12 21C19.0605 21 23.616 13.074 23.8065 12.738C24.063 12.282 24.0645 11.724 23.808 11.268C23.619 10.9305 19.0965 3 12 3C4.86751 3 0.376508 10.9335 0.189008 11.271C-0.0644919 11.7255 -0.0629919 12.279 0.192008 12.7335C0.381008 13.0695 4.90351 21 12 21ZM12 6C16.2585 6 19.554 10.2525 20.727 12C19.551 13.749 16.2555 18 12 18C7.73851 18 4.44301 13.743 3.27151 11.9985C4.43701 10.2525 7.71901 6 12 6Z" fill="#333333" fill-opacity="0.8"/>
<path d="M12 15C13.6569 15 15 13.6569 15 12C15 10.3431 13.6569 9 12 9C10.3431 9 9 10.3431 9 12C9 13.6569 10.3431 15 12 15Z" fill="#333333" fill-opacity="0.8"/>
</g>
<defs>
<clipPath id="clip0_4470_3468">
<rect width="24" height="24" fill="white"/>
</clipPath>
</defs>
</svg>
