<svg width="28" height="28" viewBox="0 0 28 28" fill="none" xmlns="http://www.w3.org/2000/svg">
<path d="M24 0H4C2.93913 0 1.92172 0.421427 1.17157 1.17157C0.421427 1.92172 0 2.93913 0 4V24C0 25.0609 0.421427 26.0783 1.17157 26.8284C1.92172 27.5786 2.93913 28 4 28H15V17.17H11.32V12.93H15V9.81C15 6.2 17.21 4.23 20.43 4.23C21.5187 4.22843 22.6067 4.28183 23.69 4.39V8.17H21.43C19.68 8.17 19.33 9 19.33 10.23V12.93H23.53L23 17.17H19.31V28H24C25.0609 28 26.0783 27.5786 26.8284 26.8284C27.5786 26.0783 28 25.0609 28 24V4C28 2.93913 27.5786 1.92172 26.8284 1.17157C26.0783 0.421427 25.0609 0 24 0Z" fill="#150B28"/>
</svg>
