<svg width="79" height="79" viewBox="0 0 79 79" fill="none" xmlns="http://www.w3.org/2000/svg">
<g clip-path="url(#clip0_4470_3116)">
<path d="M39.5 79C61.3153 79 79 61.3152 79 39.5C79 17.6848 61.3153 0 39.5 0C17.6848 0 0 17.6848 0 39.5C0 61.3152 17.6848 79 39.5 79Z" fill="#3C5A9A"/>
<path d="M52.3437 12.1244H43.5935C38.4008 12.1244 32.6251 14.3084 32.6251 21.8354C32.6505 24.458 32.6251 26.9698 32.6251 29.7967H26.6179V39.3559H32.811V66.8754H44.1912V39.1743H51.7025L52.3821 29.7698H43.9951C43.9951 29.7698 44.0139 25.5863 43.9951 24.3714C43.9951 21.3969 47.0902 21.5672 47.2763 21.5672C48.7492 21.5672 51.6129 21.5715 52.348 21.5672V12.1244H52.3437Z" fill="white"/>
</g>
<defs>
<clipPath id="clip0_4470_3116">
<rect width="79" height="79" fill="white"/>
</clipPath>
</defs>
</svg>
