<svg width="71" height="84" viewBox="0 0 71 84" fill="none" xmlns="http://www.w3.org/2000/svg">
<g clip-path="url(#clip0_4470_3087)">
<path d="M68.147 75.9785C67.8936 76.2437 67.5768 76.3763 67.1966 76.3763C66.8164 76.3763 66.4996 76.2437 66.2461 75.9785C65.9927 75.7133 65.866 75.3818 65.866 74.984C65.866 74.5862 65.9927 74.2216 66.2778 73.9564C66.5313 73.6912 66.8481 73.5917 67.1966 73.5917C67.5768 73.5917 67.8936 73.7243 68.147 73.9895C68.4005 74.2547 68.5272 74.5862 68.5272 74.984C68.5589 75.3818 68.4322 75.7133 68.147 75.9785ZM66.4362 74.1553C66.2145 74.3873 66.1194 74.6525 66.1194 74.9509C66.1194 75.2824 66.2145 75.5475 66.4362 75.7796C66.658 76.0116 66.9114 76.1111 67.2283 76.1111C67.5451 76.1111 67.7985 76.0116 68.0203 75.7796C68.2421 75.5475 68.3371 75.2824 68.3371 74.9509C68.3371 74.6525 68.2421 74.3542 68.0203 74.1553C67.7985 73.9232 67.5451 73.7906 67.2283 73.7906C66.9114 73.8238 66.658 73.9232 66.4362 74.1553ZM67.6401 75.6801C67.5134 75.7796 67.3867 75.8127 67.2599 75.8127C67.0699 75.8127 66.8798 75.7464 66.7214 75.5807C66.563 75.4149 66.4996 75.216 66.4996 74.984C66.4996 74.752 66.563 74.5531 66.6897 74.3873C66.8164 74.2216 67.0065 74.1553 67.2283 74.1553C67.355 74.1553 67.4817 74.1884 67.6084 74.2547C67.7668 74.3542 67.8936 74.5199 67.9252 74.7851H67.5768C67.5451 74.6857 67.5134 74.5862 67.45 74.5531C67.3867 74.5199 67.3233 74.4868 67.2599 74.4868C67.1649 74.4868 67.0699 74.5199 67.0065 74.6194C66.9431 74.7188 66.9114 74.8514 66.9114 75.0172C66.9114 75.1829 66.9431 75.3155 67.0065 75.3818C67.0699 75.4481 67.1649 75.5144 67.2599 75.5144C67.355 75.5144 67.4184 75.4812 67.4817 75.4481L67.5768 75.2492H67.8936C67.8619 75.4481 67.7668 75.5807 67.6401 75.6801ZM70.9983 60.9619C70.9983 60.8293 70.9667 60.6967 70.9667 60.5641C70.9667 60.4647 70.935 60.3984 70.935 60.3321C70.9033 60.1332 70.8716 59.9674 70.8083 59.7685C70.6815 59.4039 70.4914 59.0393 70.238 58.7409C69.9845 58.4426 69.6994 58.2105 69.4143 58.0448C69.0975 57.879 68.7806 57.7796 68.5272 57.7133C68.4322 57.7133 68.3688 57.6801 68.3054 57.6801C68.6539 56.089 68.2104 54.8625 67.9252 54.2989L67.9886 54.2326C68.3688 53.8348 68.6856 53.4702 68.9707 53.1056L69.0341 53.0393C69.2559 52.7078 69.3826 52.3763 69.4776 52.0779C69.541 51.8127 69.6044 51.5807 69.6044 51.3486V51.1498V51.0172V50.7188C69.5727 50.2216 69.5093 49.5917 69.1925 48.8956C69.0341 48.5641 68.8123 48.1995 68.5272 47.868C68.2421 47.5365 67.8936 47.2381 67.4817 47.0061C67.45 46.973 67.4184 46.973 67.3867 46.9398C66.5313 45.647 65.5808 44.6194 64.7254 43.8569C64.2819 43.4591 63.87 43.1277 63.5215 42.8625C63.1731 42.5973 62.8879 42.3984 62.7295 42.2658C62.3493 41.9674 62.0642 41.8017 61.9375 41.7354C61.6207 41.5365 61.3989 41.3707 61.2722 41.2713C61.1771 41.1719 61.1138 41.1387 61.0821 41.1056C61.0821 41.1056 61.0821 41.0724 61.0504 41.0061C61.0187 40.9067 61.0187 40.7741 61.0187 40.542C61.0187 40.2105 61.0187 39.7133 61.0504 39.0503C61.1138 37.9895 61.2088 36.5641 61.3355 34.6083C61.3672 33.9785 61.3672 33.3818 61.3672 32.8514C61.3355 31.9564 61.2088 31.1608 61.0504 30.4315C61.0187 30.2658 60.9554 30.1 60.9237 29.9343C60.892 29.8017 60.8603 29.7354 60.8286 29.6691C60.797 29.5696 60.7653 29.4702 60.7019 29.3376C60.6702 29.2713 60.6702 29.205 60.6069 29.1387C60.5435 28.973 60.4801 28.8072 60.3851 28.6415L60.3534 28.6083L60.3217 28.5089L60.2901 28.4426C60.1317 28.1442 59.9416 27.879 59.7515 27.647C59.6564 27.1829 59.498 26.5199 59.2129 25.7575C58.9594 25.0945 58.6426 24.3652 58.1674 23.6359C58.009 23.3707 57.8189 23.1387 57.6288 22.9067L57.6922 22.8404C57.7872 22.7409 60.0049 20.2879 61.7791 17.1055C65.0423 11.1718 63.9651 7.55859 62.4761 5.56963L62.4444 5.50334L62.4127 5.43704C60.987 3.77958 59.0228 2.7851 56.6467 2.45361C51.6727 1.79063 46.0335 4.37626 44.5444 5.10555L41.8199 1.98952C41.5664 1.72433 41.313 1.45914 41.0278 1.26024C40.7427 1.06135 40.4259 0.862452 40.1091 0.696706C39.4754 0.398364 38.7785 0.199469 38.0181 0.100021C36.5291 -0.0988741 34.8183 0.100021 32.9808 0.597259C30.2245 1.32654 27.1514 2.7851 23.9199 4.8072C20.6884 6.8293 17.3302 9.44809 14.067 12.5641C10.0752 16.3431 6.78033 20.3542 4.37255 24.1995C3.16866 26.089 2.18654 27.9453 1.45787 29.7354C0.729203 31.4923 0.253984 33.1829 0.063896 34.7078C-0.0628292 35.8348 -0.0628292 36.8956 0.15894 37.8569C0.253984 38.2879 0.380709 38.6857 0.570797 39.0835C0.792566 39.5807 1.0777 40.0448 1.42619 40.4426L4.24583 43.5254L4.56264 43.8569L4.53096 43.8901L4.43592 44.089C4.37255 44.1884 4.34087 44.2879 4.27751 44.3542L4.18247 44.5531C4.15078 44.6525 4.08742 44.752 4.05574 44.8514L3.9607 45.0503C3.92902 45.1497 3.86565 45.2492 3.83397 45.3486C3.80229 45.4149 3.77061 45.4812 3.77061 45.5475L3.67557 45.8459C3.64388 45.9122 3.64388 45.9785 3.6122 46.0448C3.58052 46.1442 3.54884 46.2437 3.51716 46.3763C3.51716 46.4094 3.48548 46.4426 3.48548 46.4757C3.48548 46.5089 3.4538 46.542 3.4538 46.5752C3.42211 46.6746 3.39043 46.8072 3.35875 46.9067C3.35875 46.973 3.32707 47.0393 3.32707 47.1056C3.32707 47.1387 3.29539 47.205 3.29539 47.2381C3.29539 47.3044 3.26371 47.3707 3.26371 47.437C3.26371 47.5033 3.23203 47.5696 3.23203 47.6359C3.20035 47.7685 3.20035 47.9011 3.16866 48.0669C3.16866 48.1 3.16866 48.1332 3.13698 48.1995V48.2326C3.13698 48.3321 3.1053 48.4315 3.1053 48.4978C3.1053 48.6304 3.07362 48.7962 3.07362 48.9288V50.5862C3.07362 50.6525 3.07362 50.7188 3.1053 50.7851C3.1053 50.8514 3.1053 50.9509 3.13698 51.0503V51.1498C3.13698 51.216 3.16866 51.3155 3.16866 51.3818C3.16866 51.4481 3.20035 51.5144 3.20035 51.6138C3.20035 51.647 3.20035 51.6801 3.23203 51.7133C3.23203 51.7464 3.26371 51.8127 3.26371 51.8459V51.9122C3.26371 51.9785 3.29539 52.0448 3.32707 52.1774C3.32707 52.2105 3.32707 52.2105 3.35875 52.2437C3.39043 52.31 3.39043 52.3763 3.39043 52.4094L3.42211 52.4757C3.42211 52.5089 3.42211 52.5089 3.4538 52.542L3.48548 52.6083V52.7078C3.48548 52.7409 3.48548 52.7409 3.51716 52.7741L3.54884 52.8404C3.54884 52.9067 3.58052 52.9398 3.58052 53.0061C3.6122 53.0724 3.6122 53.1387 3.64388 53.2713V53.2382V53.2713C3.64388 53.3044 3.64388 53.3044 3.67557 53.3376C3.70725 53.437 3.73893 53.5033 3.73893 53.5365C3.77061 53.6028 3.80229 53.6691 3.83397 53.8017L3.86565 53.8348C3.89733 53.9011 3.89733 53.9674 3.92902 54.0006L3.9607 54.0669C3.9607 54.1 3.99238 54.1332 3.99238 54.1663C3.99238 54.1995 4.02406 54.2658 4.05574 54.2989L4.08742 54.3652C4.1191 54.3984 4.1191 54.4647 4.15078 54.4978C4.18247 54.531 4.18247 54.5641 4.18247 54.5973C4.21415 54.6636 4.24583 54.7299 4.27751 54.8293L4.30919 54.8625C4.34087 54.8956 4.34087 54.9288 4.37255 54.9619C4.40423 54.9951 4.40423 55.0614 4.43592 55.0945C4.4676 55.1277 4.49928 55.194 4.53096 55.2934L4.56264 55.3265C4.59432 55.3597 4.59432 55.3928 4.626 55.426C4.65769 55.4923 4.68937 55.5254 4.68937 55.5586C4.72105 55.5917 4.75273 55.658 4.78441 55.7243V55.7575C4.81609 55.7906 4.81609 55.8238 4.84777 55.8569C4.87945 55.9232 4.91114 55.9564 4.94282 55.9895C4.9745 56.0227 5.00618 56.089 5.06954 56.1884C5.10122 56.2216 5.13291 56.2547 5.13291 56.2879C5.16459 56.3542 5.19627 56.3873 5.22795 56.4205C5.25963 56.4536 5.29131 56.5199 5.32299 56.5862C5.35467 56.6194 5.38636 56.6857 5.41804 56.7188C5.44972 56.7851 5.4814 56.8183 5.54476 56.8514L5.63981 56.9509L5.67149 56.984C5.73485 57.0503 5.76653 57.1166 5.82989 57.1829L5.89326 57.2492L5.9883 57.3486L6.17839 57.5475L6.24175 57.6138L6.33679 57.7133L6.36848 57.7464C6.43184 57.8127 6.52688 57.879 6.59024 57.9785L6.62193 58.0116C6.65361 58.0448 6.68529 58.0448 6.71697 58.1111C6.81201 58.2105 6.90706 58.2768 7.0021 58.3763L7.06546 58.4094L7.09715 58.4426L7.16051 58.4757C7.25555 58.542 7.31891 58.6083 7.41396 58.6746L7.44564 58.7078C7.47732 58.7409 7.509 58.7409 7.509 58.7409L7.57237 58.8072C7.63573 58.8735 7.69909 58.9067 7.76245 58.973L7.82582 59.0061L7.88918 59.0724L7.92086 59.1056C7.98422 59.1387 8.07927 59.205 8.14263 59.2381C8.17431 59.2713 8.20599 59.3044 8.26935 59.3044L8.33272 59.3376L8.3644 59.3708H8.39608C8.5228 59.437 8.61785 59.5033 8.71289 59.5696L8.77626 59.6028L9.15643 59.8017H9.18811L9.25147 59.8348L9.44156 59.9343C9.47324 59.9343 9.50492 59.9674 9.53661 59.9674C9.56829 60.0006 9.59997 60.0006 9.66333 60.0337H9.69501C9.75838 60.0669 9.82174 60.1 9.8851 60.1H9.91678C9.98014 60.1332 10.0435 60.1663 10.1386 60.1995H10.1702L10.2336 60.2326C10.2653 60.2326 10.297 60.2658 10.3286 60.2658H10.3603C10.4554 60.2989 10.5504 60.3321 10.6771 60.3652H10.7088C10.8672 60.4315 11.0256 60.4647 11.184 60.4978H11.2157C11.3424 60.531 11.5008 60.5641 11.6276 60.5973H11.7543C11.881 60.6304 12.0077 60.6636 12.1345 60.6636H12.2612C12.3562 60.6636 12.4196 60.6967 12.5146 60.6967C12.5146 60.7299 12.5463 60.763 12.5463 60.7962C12.7681 61.426 12.9899 62.0558 13.2433 62.6525C16.9817 73.4923 27.3415 81.9122 39.1586 83.4702C50.9758 84.9951 63.6166 76.7741 68.749 65.6691C68.9707 65.2382 69.1608 64.8404 69.3509 64.4094C69.8578 63.8459 70.2697 63.2824 70.5231 62.6857C70.935 62.321 71.03 61.5917 70.9983 60.9619ZM5.38636 56.6525H5.41804H5.38636Z" fill="#664F44"/>
<path d="M60.8926 6.72929C60.3223 6.06631 59.657 5.56907 58.9284 5.20443C58.8016 5.13813 58.6749 5.10498 58.5165 5.07183C58.4532 5.03868 58.3898 4.97238 58.3264 4.93923C57.6928 4.67404 57.0275 4.50829 56.3305 4.40885C52.9089 3.94476 48.9804 5.27073 46.7628 6.1989C46.636 6.2652 46.5093 6.29835 46.3826 6.36465C46.1925 6.4641 46.0024 6.53039 45.8123 6.62984C45.4955 6.76244 45.1787 6.92818 44.8302 7.09393C44.7668 7.12708 44.7351 7.12708 44.6718 7.16023L44.0698 6.43095L43.7847 6.09945L43.5313 5.80111L43.4362 5.66852L41.1235 2.88398L40.9334 2.65194L40.6799 2.3536H40.6483L39.983 2.51934L39.2226 2.68509C38.8107 2.48619 38.3038 2.3536 37.7336 2.25415C36.5931 2.0884 35.1357 2.25415 33.4883 2.68509C31.8409 3.11603 29.9717 3.87846 28.0074 4.90608C24.0473 6.96133 19.6752 10.1105 15.4299 14.1547C13.9409 15.547 12.5786 17.0055 11.3114 18.431C10.0758 19.8232 8.96695 21.2486 7.95315 22.6077C5.89387 25.4254 4.34148 28.1437 3.32768 30.5967C2.66237 32.221 2.25052 33.7127 2.09211 35.0055C1.96539 35.9337 1.99707 36.7624 2.15547 37.4254C2.21884 37.6575 2.2822 37.8232 2.34556 38.0221C2.50397 38.4199 2.69406 38.7514 2.94751 39.0497L5.51369 41.8674L5.79882 42.1658L5.83051 42.1326C5.89387 42.0332 5.98891 41.9337 6.08396 41.8674L6.11564 41.8343L6.21068 41.7348C6.27404 41.6354 6.36909 41.5691 6.43245 41.4696C6.49581 41.4033 6.52749 41.3702 6.59086 41.337C6.65422 41.3039 6.6859 41.2376 6.74926 41.2044L6.81263 41.1381C6.87599 41.105 6.90767 41.0387 6.97103 41.0055C7.03439 40.9392 7.12944 40.8729 7.1928 40.8066C7.22448 40.7735 7.28785 40.7404 7.31953 40.7072H7.35121C7.44625 40.6409 7.50961 40.5746 7.60466 40.5083C7.66802 40.4752 7.6997 40.442 7.76306 40.3757C7.85811 40.3094 7.92147 40.2431 8.01652 40.1768C8.07988 40.1437 8.11156 40.1105 8.17492 40.0774C8.26997 40.0111 8.36501 39.9448 8.46005 39.9116C8.52342 39.8785 8.5551 39.8453 8.61846 39.8122C8.7135 39.7459 8.80855 39.7127 8.90359 39.6464C8.96695 39.6133 8.99864 39.5801 9.062 39.547L9.12536 39.5138C9.2204 39.4807 9.28377 39.4144 9.37881 39.3812C9.41049 39.3481 9.47386 39.3481 9.50554 39.3149C9.5689 39.2818 9.63226 39.2486 9.72731 39.2155L9.91739 39.116L9.98076 39.0829L10.456 38.884C10.5193 38.8508 10.551 38.8508 10.6144 38.8177C10.6777 38.7845 10.7094 38.7845 10.7728 38.7514L10.8362 38.7183C10.8678 38.7183 10.8995 38.6851 10.9312 38.6851C10.9946 38.652 11.0579 38.652 11.153 38.6188H11.2163C11.3114 38.5857 11.3747 38.5857 11.4698 38.5525C11.5331 38.5194 11.6282 38.5194 11.6915 38.4862C11.7866 38.4531 11.8816 38.4531 11.9767 38.4199C12.0084 38.4199 12.04 38.3868 12.1034 38.3868C12.1351 38.3868 12.1984 38.3868 12.2301 38.3536C12.3252 38.3205 12.4202 38.3205 12.5153 38.3205C12.6103 38.3205 12.6737 38.2873 12.7687 38.2873C12.8321 38.2873 12.8954 38.2542 12.9588 38.2542H13.2122C13.5291 38.2542 13.9092 38.2542 14.2894 38.2873H14.3528C14.733 38.3205 15.1765 38.3868 15.62 38.4862C15.7151 38.5194 15.8418 38.5194 15.9368 38.5525C15.9685 38.5194 15.9685 38.4531 16.0002 38.4199C16.2537 37.989 16.4754 37.5249 16.7289 37.0939C18.1545 34.6078 19.6752 32.4199 21.2276 30.4973C21.7662 29.8343 22.3048 29.2376 22.8434 28.6409C25.0927 26.1879 27.3421 24.2984 29.3697 22.8398C29.8133 22.5083 30.2885 22.21 30.7003 21.9116C31.3023 21.5138 31.8725 21.1823 32.4111 20.8508C32.8547 20.5856 33.2665 20.3536 33.6784 20.1547C34.3437 19.7901 34.9456 19.4917 35.4842 19.2597L35.9594 19.0608C36.1812 18.9613 36.403 18.8619 36.5931 18.7956C36.4346 18.7624 36.2446 18.7624 36.0862 18.7624H35.4525C35.2941 18.7624 35.104 18.7624 34.9456 18.7956C34.6288 18.8287 34.2803 18.8619 33.9318 18.895C33.8051 18.9282 33.7101 18.9282 33.5833 18.9613C34.4387 18.4972 35.2941 18.1658 36.0862 17.9006C36.6247 17.7348 37.1633 17.6022 37.6702 17.5028C38.3672 17.3702 39.0325 17.2707 39.6345 17.2376C40.0463 17.2044 40.4265 17.2044 40.775 17.2044C41.1235 17.2044 41.472 17.2376 41.7571 17.2376C42.8026 17.3039 43.4362 17.4696 43.4362 17.4696C43.2778 17.2376 43.0877 17.0718 42.8976 16.9061C42.5175 16.6077 42.1056 16.4088 41.7254 16.2431C41.567 16.1768 41.4403 16.1437 41.3136 16.0774C41.2185 16.0442 41.1235 16.0111 41.0601 16.0111C41.2502 15.9779 41.4086 15.9448 41.567 15.9448C41.7571 15.9116 41.9155 15.9116 42.1056 15.8785C43.5946 15.7459 44.9252 15.8785 45.9074 16.0442C47.0796 16.2763 47.8082 16.5746 47.8082 16.5746C47.6498 16.2431 47.3964 15.9448 47.1112 15.6796C46.9212 15.5138 46.6994 15.3481 46.5093 15.2155C46.9212 15.3149 47.2696 15.4144 47.6498 15.547C48.6003 15.8453 49.3923 16.21 50.0259 16.5083L50.5962 16.8066C50.6596 16.8398 50.6912 16.8729 50.7229 16.8729C51.2932 17.2044 51.61 17.4365 51.61 17.4365C51.5149 17.0718 51.3249 16.7403 51.0714 16.442C51.008 16.3757 50.9447 16.2763 50.8813 16.21H50.913C50.9447 16.21 50.9764 16.2431 51.0397 16.2431C51.0714 16.2431 51.1348 16.2763 51.1981 16.3094C51.4516 16.4089 51.8318 16.5746 52.2753 16.8066C52.307 16.8066 52.307 16.8398 52.3387 16.8398L52.5288 16.9392C52.6872 17.0387 52.8456 17.105 53.004 17.2376L53.4792 17.5359C53.5742 17.6022 53.6376 17.6354 53.7326 17.7017C53.891 17.8343 54.0811 17.9669 54.2395 18.1326C54.4296 18.2984 54.588 18.4641 54.7464 18.6298L54.8415 18.7293C54.9682 18.8619 55.0949 18.9945 55.19 19.1271C55.4117 19.3923 55.6018 19.6906 55.7919 19.989C56.0137 20.3536 56.1721 20.7845 56.3305 21.2155C56.3305 21.2486 56.3305 21.2818 56.3622 21.2818C56.4572 21.1823 56.6473 20.9834 56.8691 20.7182C58.7066 18.4641 64.2192 11.1713 60.8926 6.72929Z" fill="#132134"/>
<path d="M69.098 61.1935C69.098 61.1935 69.1613 60.6962 68.9079 60.2321C68.9079 60.199 68.8762 60.1658 68.8762 60.1658L68.8445 60.1327L68.7495 60.0332C68.6861 59.9669 68.6228 59.9006 68.5277 59.8343C68.496 59.8012 68.4327 59.768 68.3693 59.7349C68.2109 59.6686 68.0525 59.6023 67.8307 59.5692C67.6723 59.536 67.5139 59.536 67.3238 59.536H67.0704V59.6023C67.0704 59.6355 67.1021 59.6686 67.1021 59.7349C67.1021 59.768 67.1021 59.8012 67.1337 59.8012C67.1654 59.9006 67.1971 60.0664 67.2288 60.199C67.2288 60.199 67.2288 60.2321 67.1971 60.2984V60.3316C67.1021 60.5636 66.8486 61.094 66.2783 61.757C66.1833 61.8896 66.0883 61.989 65.9615 62.1216C64.3775 63.8454 60.9559 66.2653 53.7326 67.6244C51.2931 67.989 49.012 68.0222 47.1112 67.757C44.2598 67.3924 42.1372 66.431 41.1234 65.1382C41.0284 65.0388 40.965 64.9062 40.8699 64.8067C40.8066 64.7073 40.7749 64.641 40.7115 64.5415C40.6799 64.5084 40.6799 64.4752 40.6482 64.4421C40.2363 63.6465 40.0462 62.7846 40.0462 61.9559C40.0462 60.9283 40.363 59.9669 40.8699 59.2377C41.2818 58.641 41.8204 58.1769 42.4857 57.978C42.8025 57.8785 43.151 57.8122 43.4995 57.8454C43.5629 57.8454 43.6579 57.8454 43.7846 57.8785C44.0064 57.9117 44.3549 57.9448 44.7668 58.0111C44.7984 58.0111 44.8618 58.0111 44.8935 58.0443C46.2558 58.21 48.4101 58.4421 51.008 58.2763C55.7602 57.978 62.0014 56.42 67.6723 51.0498V51.0167C67.704 50.5526 67.6406 49.757 67.1021 49.1272C67.007 49.0277 66.912 48.9283 66.7852 48.8288C66.7219 48.7625 66.6268 48.7294 66.5635 48.6631C66.4684 48.6299 66.4051 48.5636 66.3417 48.5305L66.0566 48.3316V48.2984C66.0249 48.2321 65.9932 48.1658 65.9299 48.0995C64.4725 45.7791 62.4449 44.42 61.6212 43.7902C61.241 43.4918 60.9876 43.3592 60.9876 43.3592C59.2451 42.2321 58.9916 41.8675 59.1501 38.8509C59.2134 37.757 59.3085 36.3316 59.4352 34.3758C59.4352 34.1106 59.4669 33.8785 59.4669 33.6465V33.4808V32.6852C59.4669 32.5194 59.4352 32.3537 59.4352 32.2211C59.4352 32.1548 59.4352 32.0885 59.4035 32.0222C59.3718 31.8564 59.3718 31.6907 59.3401 31.525C59.3401 31.4587 59.3085 31.3592 59.3085 31.2929C59.3085 31.1935 59.2768 31.1272 59.2451 31.0277C59.2134 30.9614 59.2134 30.862 59.1817 30.7957C59.1501 30.6962 59.1184 30.5968 59.1184 30.4973C59.1184 30.4642 59.0867 30.431 59.0867 30.3979C59.0867 30.3647 59.055 30.3316 59.055 30.2984V30.2653L59.0233 30.1658C58.9916 30.0995 58.96 30.0332 58.96 29.9669V29.9338L58.9283 29.8675L58.8966 29.8012C58.8332 29.6686 58.8016 29.536 58.7382 29.4366L58.7065 29.3371C58.6432 29.2377 58.5798 29.1051 58.5164 29.0056L58.4847 28.9725L58.4531 28.9393C58.3897 28.873 58.358 28.8067 58.2947 28.7404L58.2313 28.641C58.1679 28.5415 58.1046 28.4752 58.0412 28.4089V28.1437C58.0095 28.0111 57.9778 27.8454 57.9462 27.6797C57.9462 27.6465 57.9145 27.5802 57.9145 27.5471V27.5139C57.9145 27.4476 57.8828 27.4145 57.8828 27.3482C57.8511 27.2156 57.8194 27.083 57.7561 26.9504C57.7561 26.9172 57.7244 26.8509 57.7244 26.8178L57.6294 26.5194C57.5977 26.4531 57.5977 26.3868 57.566 26.3537C57.5343 26.2542 57.5026 26.1548 57.4393 26.0553L57.3442 25.8564C57.3125 25.757 57.2492 25.6576 57.2175 25.5581L57.1225 25.3592C57.0591 25.2598 57.0274 25.1603 56.964 25.0609L56.869 24.862C56.8056 24.7625 56.7423 24.6631 56.6789 24.5305C56.6472 24.4642 56.6156 24.431 56.5839 24.3647C56.5522 24.3316 56.5205 24.2653 56.4888 24.2321C56.3938 24.1327 56.3304 24.0332 56.2354 23.9338L56.172 23.9006C56.0453 23.7681 55.9502 23.6355 55.8235 23.536L55.7918 23.5029C55.7285 23.4697 55.6651 23.4034 55.6334 23.3703H55.6017C55.5384 23.3371 55.5067 23.304 55.4433 23.2708L55.4117 23.2377C55.3483 23.2045 55.2533 23.1382 55.1265 23.0719C55.0948 23.0388 55.0315 23.0388 54.9681 23.0056C54.683 22.9062 54.3345 22.7736 53.891 22.641C53.8593 22.641 53.8276 22.641 53.7959 22.6078C53.4474 22.5084 53.0356 22.4089 52.592 22.3426C52.4336 22.3095 52.3069 22.3095 52.1485 22.2763C52.0851 22.2763 52.0218 22.2763 51.9267 22.2432H51.8317C51.4832 22.21 51.1664 22.1769 50.8179 22.1769H50.7862C50.3427 22.1769 49.8991 22.21 49.4873 22.3095C49.5823 22.1437 49.8674 21.9448 50.1209 21.7791C50.4694 21.5802 50.7862 21.4476 50.7862 21.4476C50.5961 21.4476 50.406 21.4808 50.2159 21.5139C50.1526 21.5139 50.0892 21.5471 50.0258 21.5471C49.9942 21.5471 49.9308 21.5471 49.8991 21.5802H49.8674C49.8358 21.5802 49.8041 21.5802 49.7724 21.6134C48.7903 21.8454 47.8398 22.21 47.3013 22.4421L47.1112 22.5415H47.0795C47.0161 22.5415 46.9844 22.5415 46.9211 22.5747C47.3013 21.8122 47.8715 21.4145 48.3151 21.2156C48.3784 21.1824 48.4735 21.1493 48.5368 21.1161C48.5685 21.1161 48.5685 21.1161 48.6002 21.083C48.6635 21.0498 48.7269 21.0498 48.7586 21.0167C48.8536 20.9835 48.917 20.9835 48.917 20.9835H48.4101C47.3329 21.1161 46.3508 21.4808 45.5271 21.978C44.9568 22.3095 44.4499 22.6741 44.0064 23.0388C43.8797 23.0719 43.7846 23.1051 43.6579 23.1051C42.454 23.3703 41.0917 23.7018 39.6661 24.1658C39.1275 24.3316 38.5889 24.5305 38.0503 24.7294C37.6385 24.8951 37.1949 25.0609 36.7831 25.2266C36.4662 25.3592 36.1811 25.4918 35.8643 25.6244C33.6783 26.652 31.4923 28.0111 29.6865 29.8343L29.4964 30.0332L29.0211 30.5305L28.8311 30.7294C28.7677 30.8288 28.6727 30.9283 28.6093 30.9946C28.2608 31.3924 27.944 31.8233 27.6272 32.2874C27.4054 32.6189 27.1836 32.9835 26.9935 33.3482L26.9619 33.3813C26.55 34.1437 26.1698 34.9393 25.8847 35.8343C25.7263 36.2653 25.5996 36.7294 25.4728 37.1935C25.4412 37.3261 25.4095 37.4255 25.3778 37.5581L25.3461 37.6244C25.2194 38.1216 25.1243 38.652 25.061 39.1824C25.061 39.2819 25.0293 39.3813 25.0293 39.5139C24.9976 39.7791 24.9659 40.0443 24.9659 40.3426C24.9343 40.6078 24.9343 40.8399 24.9343 41.1051V42.1327C24.9343 42.431 24.9343 42.7294 24.9659 43.0277V43.0609C24.9659 43.3592 24.9976 43.6576 25.0293 43.989C25.0293 44.1216 25.061 44.2542 25.061 44.3868V44.4863C25.061 44.5526 25.061 44.6189 25.0927 44.7183C25.1243 45.0498 25.1877 45.4145 25.2194 45.7791C25.2194 45.8785 25.2511 45.978 25.2511 46.0774C25.3144 46.3758 25.3461 46.7073 25.4095 47.0056C25.4095 47.0056 25.3461 46.6078 25.3778 46.0111C25.3778 45.8785 25.4095 45.7128 25.4095 45.5802C25.4412 45.2487 25.5045 44.8509 25.6312 44.4863L25.7263 44.1879C25.7263 44.1548 25.758 44.1216 25.7897 44.0553C25.853 43.8896 25.9481 43.6907 26.0431 43.525C26.0748 43.6576 26.0748 43.7901 26.1065 43.8896V45.6465C26.1381 46.7736 26.2332 48.1327 26.455 49.2929C26.455 49.2929 26.4866 47.2045 26.8351 46.9393C26.8351 46.9393 27.4371 50.8509 27.9757 52.3095C28.039 52.5084 28.1341 52.641 28.1974 52.7404V52.3426L28.1341 50.1879V49.9559C28.5459 50.8509 29.0211 51.746 29.5597 52.7073C29.7181 52.9725 29.8449 53.2377 30.0033 53.5029C28.9895 54.431 28.039 55.7901 27.342 57.3813C27.247 57.6465 27.1203 57.9117 27.0252 58.1769C26.9619 58.3426 26.9302 58.4752 26.8668 58.641C26.8668 58.6741 26.8351 58.7404 26.8351 58.7736C26.8035 58.873 26.7718 59.0056 26.7401 59.1051C26.7401 59.1714 26.7084 59.2045 26.7084 59.2708C26.6767 59.3703 26.645 59.5029 26.6134 59.6023C26.6134 59.6686 26.5817 59.7018 26.5817 59.7681L26.4866 60.2653C26.455 60.431 26.4233 60.5968 26.4233 60.7625C26.4233 60.8288 26.4233 60.862 26.3916 60.9283C26.3916 61.0609 26.3599 61.1603 26.3599 61.2929C26.3599 61.3592 26.3599 61.4255 26.3282 61.4918C26.3282 61.6244 26.2966 61.7239 26.2966 61.8564V63.0167C26.2966 63.1493 26.2966 63.2819 26.3282 63.4476V63.5471C26.3282 63.7128 26.3599 63.8785 26.3916 64.0774C26.3916 64.1437 26.3916 64.1769 26.4233 64.2432C26.4233 64.3758 26.455 64.4752 26.4866 64.6078C26.4866 64.6741 26.5183 64.7404 26.5183 64.8067C26.55 64.9062 26.55 65.0388 26.5817 65.1382C26.5817 65.2045 26.6134 65.2708 26.6134 65.3371C26.645 65.4366 26.6767 65.536 26.6767 65.6686C26.7084 65.7349 26.7084 65.8012 26.7401 65.9006C26.7718 66.0001 26.8035 66.1327 26.8351 66.2321C26.8668 66.2984 26.8668 66.3647 26.8985 66.431C26.9302 66.5305 26.9619 66.6631 26.9935 66.7625C27.0252 66.8288 27.0252 66.8951 27.0569 66.9614C27.0886 67.094 27.1519 67.2266 27.1836 67.3261C27.2153 67.3924 27.2153 67.4255 27.247 67.4918L27.7222 68.5857C27.7539 68.652 27.7856 68.6852 27.8173 68.7515L28.0073 69.1493C28.039 69.2156 28.0707 69.2819 28.1341 69.3482C28.1974 69.4476 28.2608 69.5802 28.3242 69.6796C28.3558 69.7459 28.4192 69.8122 28.4509 69.8785C28.5142 69.978 28.5776 70.1106 28.6727 70.21C28.736 70.2763 28.7677 70.3426 28.8311 70.4421C28.8944 70.5415 28.9895 70.6741 29.0528 70.7736C29.1162 70.8399 29.1479 70.9062 29.2112 71.0056C29.3063 71.1051 29.3696 71.2377 29.4647 71.3371C29.528 71.4034 29.5597 71.4697 29.6231 71.536C29.7181 71.6686 29.8132 71.768 29.9399 71.9006L30.0983 72.0664C30.2567 72.2321 30.4151 72.431 30.5735 72.5968C30.5735 72.5968 30.4785 72.4642 30.3518 72.199C30.3201 72.1658 30.2884 72.0995 30.2884 72.0332L30.1934 71.8343C30.1617 71.768 30.13 71.7018 30.0983 71.6023C29.8449 71.0056 29.6231 70.1437 29.6548 69.2156L29.9399 69.6134C30.0349 69.8454 30.1934 70.1437 30.3518 70.4752C30.4151 70.5747 30.4785 70.7073 30.5102 70.8067C30.7636 71.2708 31.0171 71.8012 31.3339 72.2984C31.7141 72.9283 32.0942 73.525 32.5061 74.0885C32.5061 74.0885 32.0309 73.0277 31.8725 72.3316C31.8408 72.1327 31.8091 71.9669 31.8408 71.8675C31.8725 71.9006 31.9041 71.9669 31.9675 72.0001C31.9992 72.0332 32.0309 72.0995 32.0942 72.1327C32.1576 72.2321 32.2526 72.3647 32.3794 72.5305L32.4427 72.5968C32.5061 72.6631 32.5378 72.7625 32.6011 72.8288C32.6645 72.9283 32.7279 73.0277 32.8229 73.1272C33.4882 74.0222 34.407 75.2156 35.0406 75.8454C35.2624 76.0443 35.4524 76.21 35.5792 76.2763L34.6604 74.5526C36.7514 76.3426 45.4321 78.6299 53.9543 76.0774C54.9998 75.7791 56.0136 75.3813 57.0274 74.9172C57.6294 74.652 58.2313 74.3205 58.8332 73.989L58.9283 73.9227C59.3401 73.6907 59.752 73.4255 60.1639 73.1603C60.4807 72.9614 60.7975 72.7294 61.0826 72.5305C61.5895 72.1658 62.0964 71.768 62.6033 71.3371C62.635 71.304 62.6667 71.2708 62.6984 71.2708C63.1736 70.8399 63.6488 70.3758 64.0607 69.9117C64.6309 69.2819 65.1378 68.652 65.5814 68.0222L65.613 67.989C65.7398 67.8233 65.8348 67.6907 65.9299 67.525L65.9615 67.4918C65.9932 67.4255 66.0249 67.3924 66.0566 67.3261C66.215 67.094 66.3417 66.8951 66.5001 66.6631C66.5318 66.5968 66.5635 66.5636 66.5952 66.4973C66.6585 66.3647 66.7219 66.2653 66.8169 66.1327C66.8803 66.0332 66.912 65.9669 66.9753 65.8675C67.0387 65.768 67.1021 65.6686 67.1337 65.5692C67.2288 65.4034 67.3238 65.2045 67.4189 65.0388L67.5139 64.8399L67.704 64.4421L67.799 64.2432L67.8307 64.1769C67.8941 64.0111 67.9891 63.8454 68.0525 63.6797V63.6465C68.3376 63.3813 68.5277 63.1161 68.7178 62.8841C68.7495 62.8509 68.7812 62.8178 68.7812 62.7846C68.9713 62.1548 69.098 61.6576 69.098 61.1935ZM18.1228 54.7625C18.1228 54.7294 18.1228 54.6962 18.0911 54.6299C17.9961 54.0664 17.901 53.4697 17.8693 52.873V52.7404C17.7743 52.7736 17.6792 52.9062 17.5525 53.0719C17.5208 53.1382 17.4575 53.2045 17.4258 53.304C17.1407 53.8675 16.8872 54.6631 16.8872 54.6631C16.9189 54.3979 16.9506 54.1327 16.9506 53.8675V53.768C16.9823 53.5029 17.0139 53.2045 17.0456 52.9393V52.8399C17.0773 52.5084 17.1407 52.21 17.204 51.9117C17.204 51.8785 17.204 51.8454 17.2357 51.7791V51.746C17.2357 51.7128 17.2357 51.6797 17.2674 51.6465C17.2674 51.5802 17.2991 51.5471 17.2991 51.4808C17.3307 51.2487 17.3941 51.0167 17.4258 50.7846C17.4575 50.5857 17.4892 50.3868 17.5208 50.2211V50.1548C17.5208 50.1216 17.5208 50.0885 17.5525 50.0885V50.0222C17.5525 49.989 17.5842 49.9227 17.5842 49.8896C17.5842 49.8564 17.5842 49.8233 17.6159 49.7901C17.6159 49.7239 17.6476 49.6576 17.6476 49.6244C17.6476 49.5913 17.6792 49.525 17.6792 49.4918C17.6792 49.4255 17.7109 49.3592 17.7109 49.3261C17.7109 49.2929 17.7109 49.2598 17.7426 49.2266C17.7426 49.1935 17.7426 49.1603 17.7743 49.1603C17.7743 49.094 17.806 49.0609 17.806 49.0277V48.9283L17.7426 48.9946C17.6792 49.0277 17.6476 49.094 17.5842 49.1272L17.5208 49.1935C17.4575 49.2598 17.3941 49.3261 17.3624 49.3924L17.3307 49.4255L17.1407 49.7239L17.109 49.757C17.109 49.7902 17.0773 49.7901 17.0773 49.8233L16.9823 50.0222V50.0885C16.9506 50.1879 16.8872 50.2874 16.8555 50.3868C16.7605 50.652 16.6654 50.9172 16.6021 51.1493C16.5704 51.2156 16.5704 51.315 16.5387 51.3482C16.507 51.4808 16.4754 51.6134 16.4754 51.6465V51.6796V51.6465C16.4754 51.5471 16.4754 51.4808 16.507 51.3813C16.507 51.2156 16.5387 51.0167 16.5387 50.8509C16.5387 50.7183 16.5704 50.5526 16.6021 50.42C16.6021 50.3868 16.6021 50.3205 16.6338 50.2874C16.6338 50.2211 16.6654 50.1548 16.6654 50.0885C16.6654 50.0222 16.6971 49.9559 16.6971 49.8896V49.7901C16.6971 49.7239 16.7288 49.6244 16.7288 49.5581V49.3924V49.3261C16.7288 49.2929 16.7288 49.2598 16.7605 49.2266C16.7922 49.1272 16.8238 48.9946 16.8238 48.8951V48.862C16.8555 48.7957 16.8555 48.6962 16.8872 48.6299V48.5968C16.9189 48.431 16.9823 48.2653 17.0139 48.0995V48.0332C17.0139 48.0001 17.0139 47.9669 17.0456 47.9338C17.109 47.6686 17.204 47.4034 17.2674 47.1714V47.1382C17.3307 46.9393 17.4258 46.7073 17.4892 46.5084V46.4752C17.5208 46.3758 17.5525 46.3095 17.5842 46.21C17.6476 46.0774 17.6792 45.9448 17.7426 45.8122C17.7426 45.7791 17.7743 45.7128 17.8376 45.5802C17.8693 45.5471 17.8693 45.4808 17.901 45.4476C17.9327 45.3813 17.9644 45.315 17.9961 45.2156L18.0277 45.1493L18.5663 44.1216C18.598 44.0885 18.598 44.0222 18.6297 43.989V43.9559L18.6614 43.8896C18.7247 43.7901 18.7881 43.6576 18.8514 43.5581C18.9465 43.3924 19.0099 43.2266 19.1049 43.094C19.2633 42.7957 19.39 42.5305 19.4851 42.3979C19.5168 42.2984 19.5484 42.2653 19.5801 42.2321C19.5484 42.2321 19.39 42.0995 19.1366 41.9338C18.8198 41.7349 18.3762 41.4697 17.8376 41.2045C17.6476 41.1051 17.4892 41.0388 17.2991 40.9393C17.0773 40.8399 16.8238 40.7404 16.5704 40.641C16.507 40.6078 16.4437 40.6078 16.3803 40.5747C16.1585 40.5084 15.9684 40.4421 15.7467 40.3758C15.5883 40.3426 15.4299 40.3095 15.3031 40.2763C15.1764 40.2432 15.0497 40.2432 14.923 40.21C14.8596 40.21 14.7962 40.21 14.7329 40.1769C14.6695 40.1769 14.6062 40.1769 14.5428 40.1437C14.3844 40.1437 14.1943 40.1106 14.0359 40.1106H13.7824C13.4023 40.1106 13.0538 40.1437 12.7053 40.21H12.6419C12.0083 40.3095 11.4063 40.4752 10.8044 40.7073C10.6143 40.7736 10.4242 40.873 10.2025 40.9725C10.1391 41.0056 10.1074 41.0388 10.044 41.0388L9.85396 41.1382C9.2837 41.4366 8.74511 41.8343 8.23821 42.2653H8.20653C7.76299 42.6299 7.38282 43.0609 7.03433 43.4918L6.74919 43.8896C6.62247 44.0553 6.52742 44.2211 6.43238 44.3868C6.24229 44.6852 6.0522 45.0167 5.8938 45.3482C5.83044 45.4808 5.76707 45.5802 5.73539 45.7128C5.73539 45.7459 5.70371 45.746 5.70371 45.7791C5.3869 46.5747 5.13345 47.4034 5.0384 48.2984C5.00672 48.4642 5.00672 48.6299 4.97504 48.8288V48.8951C4.97504 49.0277 4.94336 49.1603 4.94336 49.3261V49.9227C4.94336 50.0553 4.94336 50.1879 4.97504 50.3205V50.4863C4.97504 50.5857 5.00672 50.6852 5.00672 50.7846V50.8178C5.00672 50.8841 5.00672 50.9172 5.0384 50.9835C5.0384 51.083 5.07008 51.1824 5.07008 51.2487C5.07008 51.315 5.10177 51.3813 5.10177 51.4476C5.13345 51.5471 5.13345 51.6134 5.16513 51.7128C5.16513 51.7791 5.19681 51.8454 5.22849 51.9117V51.9448L5.26017 52.0111V52.0774L5.29185 52.1437C5.32354 52.21 5.32353 52.2763 5.35522 52.3426C5.3869 52.4089 5.3869 52.5084 5.41858 52.5747C5.45026 52.641 5.48194 52.7073 5.48194 52.8067L5.51362 52.873C5.5453 52.9393 5.5453 52.9725 5.57699 53.0388C5.60867 53.1051 5.64035 53.1714 5.67203 53.2708L5.76707 53.4697C5.79875 53.5029 5.79875 53.536 5.83044 53.5692C5.86212 53.6023 5.86212 53.6355 5.8938 53.6686L5.98884 53.8675C6.02052 53.9338 6.0522 54.0332 6.11557 54.0995C6.14725 54.1658 6.17893 54.2321 6.21061 54.2653C6.24229 54.3316 6.30566 54.431 6.33734 54.4973C6.36902 54.5636 6.4007 54.5968 6.43238 54.6631C6.46406 54.7294 6.52742 54.8288 6.59079 54.8951C6.62247 54.9614 6.65415 54.9946 6.68583 55.0277C6.74919 55.094 6.78087 55.1935 6.84424 55.2598C6.87592 55.2929 6.9076 55.3592 6.93928 55.3924C7.00264 55.4587 7.06601 55.5581 7.12937 55.6244C7.16105 55.6576 7.19273 55.6907 7.22441 55.757C7.28778 55.8233 7.35114 55.9227 7.4145 55.989L7.50954 56.0885C7.57291 56.1548 7.63627 56.2542 7.73131 56.3205L7.82636 56.42L8.04813 56.652C8.07981 56.6852 8.11149 56.7183 8.14317 56.7183C8.20653 56.7846 8.30158 56.8509 8.39662 56.9504C8.4283 56.9835 8.45998 56.9835 8.49166 57.0167C8.58671 57.083 8.65007 57.1493 8.74511 57.2156C8.7768 57.2487 8.80848 57.2487 8.80848 57.2819L9.09361 57.4808L9.15697 57.5139L9.4421 57.7128L9.50547 57.7459C9.60051 57.8122 9.72723 57.8785 9.82228 57.9448L9.88564 57.978C9.98069 58.0443 10.1074 58.1106 10.2025 58.1437L10.2658 58.1769C10.3925 58.2432 10.4876 58.2763 10.6143 58.3426L10.646 58.3758C10.7727 58.4421 10.8994 58.4752 10.9945 58.5415H11.0262C11.1529 58.5747 11.2796 58.641 11.4063 58.6741H11.438C11.5014 58.7073 11.5648 58.7073 11.6281 58.7404C11.6915 58.7736 11.7548 58.7736 11.8499 58.8067H11.8816C12.0083 58.8399 12.1667 58.873 12.2934 58.9062C12.4201 58.9393 12.5786 58.9725 12.7053 58.9725C13.1488 59.0388 13.5924 59.0719 14.0359 59.1051H14.3527C14.5111 59.1051 14.6378 59.1051 14.7962 59.0719C14.9863 59.0388 15.2081 59.0388 15.4299 59.0056C15.62 58.9725 15.81 58.9393 15.9685 58.9062C16.2536 58.8399 16.5387 58.7736 16.7922 58.6741C17.6159 58.4421 18.3129 58.1106 18.7564 57.7459C18.7564 57.7459 18.4713 56.42 18.2495 55.094C18.1861 55.0277 18.1545 54.8951 18.1228 54.7625Z" fill="#90694C"/>
<path d="M38.4623 5.50271L38.3673 4.17675L39.0009 2.71818L39.2543 2.65189C38.8425 2.45299 38.3356 2.32039 37.7653 2.22095C36.6248 2.0552 35.1674 2.22095 33.52 2.65189C31.8726 3.08282 30.0034 3.84526 28.0392 4.87288C24.079 6.92813 19.707 10.0773 15.4617 14.1215C13.9727 15.5138 12.6104 16.9723 11.3431 18.3977C10.1075 19.79 8.99869 21.2154 7.98489 22.5745C5.92561 25.3922 4.37322 28.1104 3.35942 30.5635C2.69411 32.1878 2.28226 33.6795 2.12385 34.9723C1.99712 35.9005 2.02881 36.7292 2.18721 37.3922C2.25057 37.6243 2.31394 37.79 2.3773 37.9889C2.53571 38.3867 2.72579 38.7182 2.97924 39.0165L5.54543 41.8342L5.83056 42.1325L5.86224 42.0994C5.9256 41.9999 6.02065 41.9005 6.11569 41.8342L6.14737 41.8011L6.24242 41.7016C6.30578 41.6022 6.40082 41.5359 6.46419 41.4364C6.52755 41.3701 6.55923 41.337 6.62259 41.3038C6.68596 41.2707 6.71764 41.2044 6.781 41.1712L6.84436 41.1049C6.90773 41.0718 6.93941 41.0055 7.00277 40.9723C7.06613 40.906 7.16118 40.8397 7.22454 40.7734C7.25622 40.7403 7.31958 40.7071 7.35126 40.674H7.38294C7.47799 40.6077 7.54135 40.5414 7.63639 40.4751C7.69976 40.4419 7.73144 40.4088 7.7948 40.3425C7.88985 40.2762 7.95321 40.2099 8.04825 40.1436C8.11161 40.1104 8.1433 40.0773 8.20666 40.0441C8.3017 39.9778 8.39675 39.9115 8.49179 39.8784C8.55515 39.8453 8.58683 39.8121 8.6502 39.779C8.74524 39.7127 8.84028 39.6795 8.93533 39.6132C8.99869 39.5801 9.03037 39.5469 9.09373 39.5138L9.1571 39.4806C9.75904 37.7237 10.6778 35.7679 11.8817 33.779C13.339 31.3259 15.2082 28.7403 17.4259 26.1546C18.8199 24.5303 20.3406 22.906 21.988 21.348C24.1107 19.3259 26.2967 17.5027 28.451 15.9116C29.9083 14.8508 31.334 13.8895 32.728 13.0607C32.8547 12.9944 32.9814 12.895 33.1398 12.8287C33.52 12.5966 33.8685 12.3977 34.2487 12.1988C35.0407 11.7679 35.8327 11.3701 36.5931 11.0386L36.2129 10.5745L36.1496 10.5082L35.6743 9.9447L33.0448 6.62979L33.0765 4.24305L33.0448 4.2099L34.914 3.61321L38.4623 5.50271Z" fill="#2F83C1"/>
<path d="M69.0981 61.1934C69.0981 61.1934 69.1614 60.6961 68.908 60.2321C68.908 60.1989 68.8763 60.1658 68.8763 60.1658L68.8446 60.1326L68.7496 60.0332C68.6862 59.9669 68.6229 59.9006 68.5278 59.8343C68.4961 59.8011 68.4328 59.768 68.3694 59.7348C68.211 59.6685 68.0526 59.6022 67.8308 59.5691C67.6724 59.5359 67.514 59.5359 67.3239 59.5359H67.0705V59.6022C67.0705 59.6354 67.1021 59.6685 67.1021 59.7348C67.1021 59.768 67.1021 59.8011 67.1338 59.8011C67.1655 59.9006 67.1972 60.0663 67.2289 60.1989C67.2289 60.1989 67.2289 60.232 67.1972 60.2983V60.3315C67.1022 60.5635 66.8487 61.0939 66.2784 61.7569C66.1834 61.8895 66.0883 61.989 65.9616 62.1216C64.3776 63.8453 60.956 66.2652 53.7326 67.6243C51.2932 67.989 49.0121 68.0221 47.1112 67.7569C44.2599 67.3923 42.1373 66.4309 41.1235 65.1381C41.0284 65.0387 40.9651 64.9061 40.87 64.8066C40.8067 64.7072 40.775 64.6409 40.7116 64.5414C40.6799 64.5083 40.6799 64.4751 40.6483 64.442C40.2364 63.6464 40.0463 62.7845 40.0463 61.9558C40.0463 60.9282 40.3631 59.9669 40.87 59.2376C41.2819 58.6409 41.8205 58.1768 42.4858 57.9779C42.8026 57.8785 43.1511 57.8122 43.4996 57.8453C43.5629 57.8453 43.658 57.8453 43.7847 57.8785C44.0065 57.9116 44.355 57.9448 44.7668 58.0111C44.7985 58.0111 44.8619 58.0111 44.8936 58.0442C46.2558 58.21 48.4102 58.442 51.008 58.2763C55.7602 57.9779 62.0015 56.4199 67.6724 51.0497V51.0166C67.7041 50.5525 67.6407 49.7569 67.1021 49.1271C67.0071 49.0276 66.9121 48.9282 66.7853 48.8287C66.722 48.7624 66.6269 48.7293 66.5636 48.663C66.4685 48.6298 66.4052 48.5635 66.3418 48.5304L66.0567 48.3315V48.2983C66.025 48.232 65.9933 48.1658 65.9299 48.0995C64.4726 45.779 62.445 44.4199 61.6213 43.7901C61.2411 43.4917 60.9877 43.3591 60.9877 43.3591C59.2452 42.2321 58.9917 41.8674 59.1501 38.8508C59.2135 37.7569 59.3086 36.3315 59.4353 34.3757C59.4353 34.1105 59.467 33.8785 59.467 33.6464V33.4807V32.6851C59.467 32.5193 59.4353 32.3536 59.4353 32.221C59.4353 32.1547 59.4353 32.0884 59.4036 32.0221C59.3719 31.8564 59.3719 31.6906 59.3402 31.5249C59.3402 31.4586 59.3085 31.3591 59.3085 31.2928C59.3085 31.1934 59.2769 31.1271 59.2452 31.0276C59.2135 30.9613 59.2135 30.8619 59.1818 30.7956C59.1501 30.6961 59.1185 30.5967 59.1185 30.4972C59.1185 30.4641 59.0868 30.4309 59.0868 30.3978C59.0868 30.3646 59.0551 30.3315 59.0551 30.2984V30.2652L59.0234 30.1658C58.9917 30.0995 58.9601 30.0332 58.9601 29.9669V29.9337L58.9284 29.8674L58.8967 29.8011C58.8333 29.6685 58.8016 29.5359 58.7383 29.4365L58.7066 29.337C58.6432 29.2376 58.5799 29.105 58.5165 29.0055L58.4848 28.9724L58.4532 28.9392C58.3898 28.8729 58.3581 28.8066 58.2947 28.7403L58.2314 28.6409C58.168 28.5414 58.1047 28.4751 58.0413 28.4088L57.7878 28.1437C57.6928 28.0774 57.5978 28.0111 57.5027 27.9779C57.471 27.9448 57.4394 27.9448 57.4077 27.9448L57.2176 27.8453C57.1859 27.8453 57.1542 27.8122 57.1225 27.8122C57.0592 27.779 56.9958 27.779 56.9641 27.7459C56.9325 27.7459 56.9008 27.7127 56.8374 27.7127C56.774 27.7127 56.7424 27.6796 56.679 27.6796H55.982C55.9503 27.6796 55.9186 27.6796 55.887 27.7127C55.8553 27.7127 55.8236 27.7127 55.7919 27.7459C55.7286 27.7459 55.6652 27.779 55.5702 27.8122H55.5068C55.3167 27.8785 55.1583 27.9448 54.9682 28.0111L54.9049 28.0442C54.8415 28.0774 54.7781 28.1105 54.6831 28.1437L54.588 28.1768L54.3979 28.2763L54.3029 28.3425L54.1128 28.442L54.0178 28.5083C53.9544 28.5414 53.891 28.6077 53.8277 28.6409L53.7643 28.674C53.701 28.7403 53.6059 28.7735 53.5426 28.8398L53.5109 28.8729C53.4158 28.9392 53.3525 29.0055 53.2574 29.0387C53.099 29.1381 52.9406 29.2707 52.7822 29.3702C52.6555 29.4696 52.5288 29.5691 52.3703 29.6685L52.307 29.7017C52.1803 29.8011 52.0219 29.9006 51.8951 29.9669L51.8318 30C51.705 30.0995 51.5466 30.1658 51.4199 30.2652L51.3565 30.2984C51.2298 30.3978 51.0714 30.4641 50.913 30.5304L50.8496 30.5635C50.6912 30.6298 50.5645 30.6961 50.4061 30.7624L50.3427 30.7956C50.1843 30.8619 50.0259 30.895 49.8675 30.9613H49.8358C49.6774 30.9945 49.4873 31.0276 49.3289 31.0608C49.0438 31.0939 48.727 31.1271 48.4419 31.1271C47.9666 31.1271 47.4914 31.0939 46.9845 31.0276L46.5093 30.9282C46.4459 30.9282 46.3826 30.895 46.3509 30.895C45.939 30.7956 45.4955 30.6961 45.0836 30.5967C44.8936 30.5635 44.7351 30.4972 44.5451 30.4641C44.2599 30.3978 43.9748 30.3315 43.658 30.2652C43.5946 30.2652 43.5313 30.2321 43.4996 30.2321C43.4679 30.2321 43.4045 30.1989 43.3728 30.1989C43.3095 30.1989 43.2461 30.1658 43.1828 30.1658C43.1194 30.1658 43.056 30.1326 42.9927 30.1326H42.9293C42.8659 30.1326 42.8026 30.0995 42.7709 30.0995C42.6442 30.0663 42.5175 30.0332 42.359 30.0332C42.3274 30.0332 42.264 30.0332 42.2323 30C42.1373 30 42.0422 29.9669 41.9472 29.9669C41.8838 29.9669 41.8521 29.9669 41.7888 29.9337C41.6937 29.9337 41.6304 29.9006 41.5353 29.9006H40.078C39.9196 29.9006 39.7929 29.9337 39.6345 29.9337H39.5077C39.4127 29.9337 39.3176 29.9669 39.2226 29.9669H39.1909C39.1276 29.9669 39.0959 30 39.0325 30C38.9375 30.0332 38.8424 30.0332 38.7474 30.0663C38.684 30.0663 38.6207 30.0995 38.589 30.0995C38.4939 30.1326 38.3989 30.1658 38.3038 30.1658C38.2405 30.1658 38.2088 30.1989 38.1454 30.2321C38.0504 30.2652 37.9237 30.2983 37.8286 30.3315C37.7653 30.3646 37.7336 30.3646 37.7019 30.3978C37.5435 30.4641 37.3851 30.5304 37.2584 30.5967C36.0545 31.326 35.009 32.3204 34.217 33.4475C33.9318 33.8453 33.6784 34.2431 33.4566 34.6409C33.2031 35.0718 33.0131 35.5359 32.823 36C32.7596 36.1326 32.7279 36.2652 32.6646 36.3978C32.6012 36.6298 32.5062 36.8619 32.4428 37.0939C32.4428 37.1271 32.4428 37.1602 32.4111 37.1602C32.3478 37.4254 32.2844 37.6906 32.221 37.989C32.1577 38.2873 32.126 38.5525 32.0943 38.8508C32.0626 39.0166 32.0626 39.1492 32.0626 39.3149C32.0309 39.7459 32.0309 40.1437 32.0626 40.5746V40.674C32.0626 40.7735 32.0626 40.8729 32.0943 41.0055C32.126 41.3039 32.1577 41.6022 32.221 41.9006C32.2527 42 32.2844 42.0995 32.2844 42.2321C32.3161 42.3315 32.3161 42.4309 32.3478 42.5304C32.5378 43.2928 32.823 43.989 33.1715 44.5856C34.4704 46.9392 36.6247 48.3646 38.2088 49.1271C38.8107 49.3923 39.4444 49.6575 40.1097 49.8895L40.0463 49.9558C39.9196 49.989 39.7929 50.0221 39.6345 50.0553C39.4127 50.1216 39.1276 50.221 38.8424 50.3204C38.5256 50.4199 38.1454 50.5856 37.7653 50.7514C36.7515 51.1823 35.6109 51.8122 34.5971 52.674C34.4704 52.7735 34.3437 52.9061 34.217 53.0055C33.9952 53.2044 33.8051 53.4033 33.615 53.6354L33.5516 53.7017L33.4566 53.8011C33.3932 53.9006 33.2982 53.9669 33.2348 54.0663L33.1398 54.1658C33.0447 54.2983 32.9497 54.4309 32.8863 54.5635C32.7913 54.6961 32.7279 54.8287 32.6329 54.9613C32.0309 56.0553 31.6824 57.3812 31.7775 58.9724V58.9061C31.7775 58.8729 31.7775 58.8398 31.8092 58.8066V58.7735C31.8092 58.7403 31.8409 58.7072 31.8409 58.6409V58.6077C31.8409 58.5746 31.8725 58.5083 31.8725 58.442C31.8725 58.3757 31.9042 58.3426 31.9359 58.2763V58.2431C31.9676 58.1768 31.9676 58.1105 31.9993 58.0442V58.0111C32.0309 57.9448 32.0309 57.8785 32.0626 57.8122V57.779C32.0943 57.7127 32.126 57.6464 32.1577 57.547L32.1893 57.5138C32.221 57.4475 32.2527 57.3481 32.3161 57.2818C32.3794 57.1492 32.4428 57.0497 32.5062 56.9171C32.5378 56.884 32.5695 56.8177 32.6012 56.7845L32.6329 56.7514L32.823 56.453C32.8863 56.3867 32.9497 56.2873 33.0131 56.221L33.0764 56.1547C33.1398 56.0884 33.1715 56.0221 33.2348 55.989L33.2982 55.9227C33.3616 55.8564 33.4566 55.7901 33.52 55.6906C33.52 55.6906 32.1577 58.9392 32.7596 61.4917V61.4586V61.3923V61.2928V61.1602V60.9945C32.7596 60.9282 32.7596 60.8619 32.7913 60.7956C32.7913 60.7293 32.7913 60.663 32.823 60.5967V60.5635C32.823 60.4972 32.8547 60.3978 32.8547 60.3315V60.2652C32.8863 60.1658 32.8863 60.0995 32.918 60V59.9669C32.9497 59.8674 32.9814 59.768 32.9814 59.7017C32.9814 59.6685 33.0131 59.6354 33.0131 59.6022L33.0447 59.5359C33.0764 59.4696 33.1081 59.3702 33.1398 59.3039C33.1715 59.2044 33.2348 59.105 33.2982 59.0055C33.2982 58.9724 33.3299 58.9392 33.3299 58.9392L33.52 58.6409C33.52 58.6409 33.4566 59.4365 33.4566 60.3978C33.4566 60.5635 33.4566 60.6961 33.4883 60.8619C33.4883 60.9613 33.4883 61.0608 33.52 61.1602C33.5833 60.1326 33.7734 59.1713 34.0269 58.2763C33.7734 59.1713 33.5833 60.1326 33.52 61.1602C33.4883 61.8232 33.4883 62.4862 33.5516 63.1823C33.6467 64.3426 33.9318 65.6022 34.407 66.895C34.407 66.895 33.9635 65.4033 34.5971 63.9116L34.7872 64.3094C34.8506 64.7403 34.9139 65.3702 35.0407 66.0663C35.1674 67.2265 35.6743 70.7072 37.9553 73.1271C37.9553 73.1271 37.1 71.9669 37.2267 70.4751C37.3217 70.674 37.4168 70.8398 37.4801 71.0055C37.8603 71.768 38.6207 73.1602 39.476 74.1547C39.476 74.1547 38.8107 72.7956 38.9691 72.4972C38.9691 72.4972 41.1868 75.3812 41.8838 75.6464L40.9651 74.0553L40.9334 74.0221C44.1332 76.4751 48.5686 77.3702 54.0178 75.779C54.9682 75.5138 55.9186 75.1492 56.9324 74.7182C57.5344 74.453 58.1363 74.1216 58.7383 73.7901L58.8333 73.7238C59.2452 73.4917 59.657 73.2265 60.0689 72.9613C60.3857 72.7624 60.7025 72.5304 60.9877 72.3315C61.4946 71.9669 62.0015 71.5691 62.5084 71.1381C62.54 71.105 62.5717 71.0718 62.6034 71.0718C63.0786 70.6409 63.5538 70.1768 63.9657 69.7127C64.536 69.0829 65.0429 68.453 65.4864 67.8232L65.5181 67.7901C65.6448 67.6243 65.7399 67.4917 65.8349 67.326L65.8666 67.2928C65.8983 67.2265 65.9299 67.1934 65.9616 67.1271C66.12 66.895 66.2468 66.6961 66.4052 66.4641C66.4368 66.3978 66.4685 66.3646 66.5002 66.2984C66.5636 66.1658 66.6269 66.0663 66.722 65.9337C66.7853 65.8343 66.817 65.768 66.8804 65.6685C66.9437 65.5691 67.0071 65.4696 67.0388 65.3702C67.1338 65.2044 67.2289 65.0055 67.3239 64.8398L67.419 64.6409L67.6091 64.2431L67.7041 64.0442L67.7358 63.9779C67.7991 63.8122 67.8942 63.6464 67.9575 63.4807V63.4475C68.2427 63.1823 68.4328 62.9171 68.6229 62.6851C68.6545 62.6519 68.6862 62.6188 68.6862 62.5856C68.9713 62.1547 69.0981 61.6575 69.0981 61.1934ZM17.8694 52.7403C17.7744 52.7735 17.6793 52.9061 17.5526 53.0718C17.5209 53.1381 17.4575 53.2044 17.4259 53.3039C17.1407 53.8674 16.8873 54.663 16.8873 54.663C16.919 54.3978 16.9506 54.1326 16.9506 53.8674V53.768C16.9823 53.5028 17.014 53.2044 17.0457 52.9392V52.8398C17.0774 52.5083 17.1407 52.21 17.2041 51.9116C17.2041 51.8785 17.2041 51.8453 17.2358 51.779V51.7459C17.2358 51.7127 17.2358 51.6796 17.2675 51.6464C17.2675 51.5801 17.2991 51.547 17.2991 51.4807C17.3308 51.2486 17.3942 51.0166 17.4259 50.7845C17.4575 50.5856 17.4892 50.3867 17.5209 50.221V50.1547C17.5209 50.1216 17.5209 50.0884 17.5526 50.0884V50.0221C17.5526 49.989 17.5843 49.9227 17.5843 49.8895C17.5843 49.8564 17.5843 49.8232 17.6159 49.7901C17.6159 49.7238 17.6476 49.6575 17.6476 49.6243C17.6476 49.5912 17.6793 49.5249 17.6793 49.4917C17.6793 49.4254 17.711 49.3591 17.711 49.326C17.711 49.2928 17.711 49.2597 17.7427 49.2265C17.7427 49.1934 17.7427 49.1602 17.7744 49.1602C17.7744 49.0939 17.806 49.0608 17.806 49.0276V48.9282L17.7427 48.9945C17.6793 49.0276 17.6476 49.0939 17.5843 49.1271L17.5209 49.1934C17.4575 49.2597 17.3942 49.326 17.3625 49.3923L17.3308 49.4254L17.1407 49.7238L17.109 49.7569C17.109 49.7901 17.0774 49.7901 17.0774 49.8232L16.9823 50.0221V50.0884C16.9506 50.1879 16.8873 50.2873 16.8556 50.3867C16.7606 50.6519 16.6655 50.9171 16.6021 51.1492C16.5705 51.2155 16.5705 51.3149 16.5388 51.3481C16.5071 51.4807 16.4754 51.6133 16.4754 51.6464V51.6796V51.6464C16.4754 51.547 16.4754 51.4807 16.5071 51.3812C16.5071 51.2155 16.5388 51.0166 16.5388 50.8508C16.5388 50.7182 16.5705 50.5525 16.6021 50.4199C16.6021 50.3867 16.6021 50.3204 16.6338 50.2873C16.6338 50.221 16.6655 50.1547 16.6655 50.0884C16.6655 50.0221 16.6972 49.9558 16.6972 49.8895V49.7901C16.6972 49.7238 16.7289 49.6243 16.7289 49.558V49.3923V49.326C16.7289 49.2928 16.7289 49.2597 16.7606 49.2265C16.7922 49.1271 16.8239 48.9945 16.8239 48.895V48.8619C16.8556 48.7956 16.8556 48.6961 16.8873 48.6298V48.5967C16.919 48.4309 16.9823 48.2652 17.014 48.0995V48.0332C17.014 48 17.014 47.9669 17.0457 47.9337C17.109 47.6685 17.2041 47.4033 17.2675 47.1713V47.1381C17.3308 46.9392 17.4259 46.7072 17.4892 46.5083V46.4751C17.5209 46.3757 17.5526 46.3094 17.5843 46.2099C17.6476 46.0774 17.6793 45.9448 17.7427 45.8122C17.7427 45.779 17.7744 45.7127 17.8377 45.5801C17.8694 45.547 17.8694 45.4807 17.9011 45.4475C17.9328 45.3812 17.9644 45.3149 17.9961 45.2155L18.0278 45.1492C17.9961 45.116 17.9328 45.116 17.9011 45.0829H17.8694L17.806 45.0497C17.5209 44.9171 17.2041 44.7845 16.8873 44.6851H16.8239C16.6021 44.6188 16.4121 44.5856 16.1903 44.5525C16.0636 44.5525 15.9368 44.5193 15.8101 44.5193H15.4933C15.3349 44.5193 15.1765 44.5525 15.0181 44.5525C14.9547 44.5525 14.923 44.5525 14.8597 44.5856C14.7963 44.5856 14.7013 44.6188 14.6379 44.6188C14.6062 44.6188 14.5745 44.6188 14.5429 44.6519C14.4795 44.6519 14.4478 44.6851 14.3845 44.6851C14.2894 44.7182 14.1627 44.7514 14.0676 44.7845C14.036 44.7845 13.9726 44.8177 13.9409 44.8177C13.8142 44.884 13.6558 44.9171 13.5291 44.9834C13.4657 45.0166 13.434 45.0497 13.3707 45.0497L13.1806 45.1492L13.1172 45.1823C13.0538 45.2155 12.9905 45.2486 12.9271 45.3149C12.8638 45.3481 12.8004 45.3812 12.737 45.4475C12.6737 45.4807 12.6103 45.547 12.5469 45.5801C12.5153 45.6133 12.4519 45.6464 12.4202 45.6796C12.3252 45.779 12.1984 45.8785 12.1034 45.9779L11.945 46.1437C11.85 46.2431 11.7866 46.3426 11.6915 46.442L11.6599 46.4751C11.6282 46.5414 11.5648 46.5746 11.5331 46.6409L11.4381 46.7403C11.2797 46.9724 11.1213 47.2376 10.9946 47.5028C10.9629 47.5359 10.9629 47.5691 10.9312 47.6022C10.8678 47.7348 10.8362 47.8674 10.7728 48C10.7411 48.0663 10.7411 48.0995 10.7094 48.1658C10.6777 48.2984 10.6144 48.4309 10.5827 48.5967V48.7293C10.551 48.8287 10.551 48.9282 10.5193 49.0276C10.5193 49.0939 10.5193 49.1271 10.4877 49.1934C10.4877 49.2597 10.4877 49.2928 10.456 49.3591V49.4917C10.456 49.6575 10.4243 49.8232 10.456 49.989C10.456 50.1216 10.456 50.2542 10.4877 50.3867V50.453C10.4877 50.5193 10.5193 50.5856 10.5193 50.6519C10.551 50.9171 10.6144 51.1492 10.6777 51.4144C10.7411 51.6133 10.8045 51.779 10.8678 51.9448C10.9946 52.2762 11.153 52.5746 11.3431 52.8729C11.7232 53.4696 12.2301 54 12.8321 54.3978C13.1489 54.6298 13.5291 54.7956 13.9092 54.9282C14.2577 55.0608 14.6379 55.1602 15.0498 55.1934C15.1448 55.1934 15.2399 55.2265 15.3032 55.2265H15.7151C15.8418 55.2265 15.9685 55.1934 16.0952 55.1934C16.1586 55.1934 16.2537 55.1934 16.317 55.1602C16.5071 55.1271 16.6655 55.0939 16.8556 55.0608H16.8873C16.9506 55.0276 17.014 55.0276 17.109 54.9945C17.3308 54.9282 17.5526 54.8287 17.7427 54.7293L17.7744 54.6961C17.8377 54.663 17.9011 54.6298 17.9328 54.6298C17.8377 54.0663 17.7427 53.4696 17.711 52.8729C17.8694 52.8066 17.8694 52.7735 17.8694 52.7403Z" fill="#FCE9CD"/>
<path d="M39.2542 5.90051L39.3492 5.96681L39.2542 5.90051Z" fill="#4D9ED7"/>
<path d="M67.1654 59.8342C67.1654 59.8011 67.1654 59.7679 67.1337 59.7679C67.102 59.7016 67.102 59.6685 67.102 59.6353C66.9436 59.105 66.7535 58.7072 66.5635 58.4088C66.3417 58.0442 66.1516 57.8453 66.1516 57.8453L66.2466 57.4475C66.2783 57.2818 66.31 57.116 66.31 56.9503C66.4367 55.7569 66.1516 54.8287 65.8981 54.2983C65.8665 54.1989 65.8348 54.1326 65.8031 54.0663C65.613 54.1989 65.4546 54.3315 65.2645 54.4641C61.8429 56.884 58.0095 58.442 53.8593 59.105C51.0079 59.569 47.9982 59.6022 44.8618 59.2044L44.9251 59.2376C44.9251 59.2376 43.0242 59.5027 42.5173 61.3922L42.549 61.4254L42.3906 62.6851C42.454 64.4088 43.1827 65.4696 44.0381 66.0331C44.9251 66.3978 46.0023 66.663 47.2062 66.8287C49.2655 67.0939 51.6732 67.0276 54.081 66.6298C57.3125 66.1657 61.8746 64.3757 65.1378 62.0552C65.8665 61.5248 66.5634 60.9613 67.1337 60.3978L67.1654 60.3646L67.1971 60.3315C67.1971 60.0994 67.1654 59.9668 67.1654 59.8342Z" fill="white"/>
<path d="M60.9874 43.4586C59.2449 42.3315 58.9915 41.9668 59.1499 38.9503C59.2132 37.8563 59.3083 36.4309 59.435 34.4751C59.435 34.2099 59.4667 33.9779 59.4667 33.7459V33.5801V32.7845C59.4667 32.6188 59.435 32.453 59.435 32.3204C59.435 32.2541 59.435 32.1878 59.4033 32.1215C59.3716 31.9558 59.3716 31.7901 59.34 31.6243C59.34 31.558 59.3083 31.4586 59.3083 31.3923C59.3083 31.2928 59.2766 31.2265 59.2449 31.1271C59.2132 31.0608 59.2132 30.9613 59.1816 30.895C58.9281 30.4972 58.643 30.1657 58.2945 29.8674L58.2311 29.8011L58.1678 29.768H58.1361C58.0727 29.7348 58.041 29.7017 57.9777 29.6685C57.9143 29.6354 57.8509 29.6022 57.8193 29.5691C57.3124 29.2376 56.7104 29.0387 56.1085 28.9392C55.76 28.8729 55.4115 28.8729 55.063 28.8729C54.9046 28.8729 54.7145 28.9061 54.5561 28.9061C54.1126 28.9724 53.669 29.0718 53.1938 29.2044C53.0354 29.3039 52.877 29.4365 52.7186 29.5359C52.5919 29.6354 52.4651 29.7348 52.3067 29.8343L52.2434 29.8674C52.1166 29.9668 51.9582 30.0663 51.8315 30.1326L51.7681 30.1657C51.6414 30.2652 51.483 30.3315 51.3563 30.4309L51.2929 30.4641C51.1662 30.5635 51.0078 30.6298 50.8494 30.6961L50.786 30.7293C50.6276 30.7956 50.5009 30.8619 50.3425 30.9282L50.2791 30.9613C50.1207 31.0276 49.9623 31.0608 49.8039 31.1271H49.7722C49.6138 31.1602 49.4237 31.1934 49.2653 31.2265C48.9802 31.2597 48.6634 31.2928 48.3782 31.2928C47.903 31.2928 47.4278 31.2597 46.9209 31.1934L46.4457 31.0939C46.3823 31.0939 46.319 31.0608 46.2873 31.0608C45.8754 30.9613 45.4319 30.8619 45.02 30.7624C44.8299 30.7293 44.6715 30.663 44.4814 30.6298C44.1963 30.5635 43.9112 30.4972 43.5944 30.4309C43.531 30.4309 43.4676 30.3978 43.436 30.3978C43.1825 30.3978 42.9291 30.4309 42.7073 30.4641H42.6439C41.9153 30.5635 41.2183 30.7293 40.4896 30.9945C40.4579 30.9945 40.4262 31.0276 40.3629 31.0276C40.2362 31.0608 40.1411 31.1271 40.0144 31.1602C39.856 31.2265 39.7293 31.2928 39.5708 31.3591C38.5254 31.8232 37.5432 32.4862 36.5928 33.3149C36.2126 33.6464 35.8641 34.011 35.5156 34.3757C35.0087 34.9392 34.5652 35.5359 34.1533 36.1657C34.1217 36.1989 34.1217 36.232 34.09 36.2652C33.8682 36.5967 33.6781 36.9613 33.5197 37.2928C33.4564 37.4254 33.393 37.558 33.3296 37.6575V37.6906C33.1395 38.1215 32.9811 38.5193 32.8544 38.9503C32.8544 38.9834 32.8544 39.0166 32.8227 39.0166C32.7911 39.0829 32.7911 39.1492 32.7594 39.2155C32.696 39.4144 32.6326 39.6133 32.601 39.8122C32.5376 40.011 32.5059 40.2099 32.4742 40.442C32.4742 40.4751 32.4426 40.5414 32.4426 40.5746C32.4109 40.7072 32.4109 40.8398 32.3792 40.9392C32.3158 41.4033 32.2842 41.8674 32.2525 42.3315V42.663C32.4426 43.4254 32.7277 44.1215 33.0762 44.7182C34.3751 47.0718 36.5294 48.4972 38.1135 49.2597C38.7155 49.5249 39.3491 49.79 40.0144 50.0221L40.0461 50.0552L40.0777 50.0221C40.1728 49.9558 40.2362 49.8895 40.3312 49.8232C40.3629 49.7901 40.3946 49.7901 40.4262 49.7569L40.7114 49.558C40.7431 49.5249 40.7747 49.5249 40.8064 49.4917L41.0915 49.2928C41.1232 49.2597 41.1549 49.2597 41.1866 49.2265C41.2816 49.1602 41.3767 49.0939 41.5034 49.0276C41.5351 48.9945 41.5668 48.9945 41.5984 48.9613C41.6935 48.895 41.8202 48.8287 41.9153 48.7624C41.9469 48.7293 41.9786 48.7293 42.0103 48.6961C42.1054 48.6298 42.2321 48.5635 42.3271 48.4972C42.3588 48.4641 42.4222 48.4641 42.4538 48.4309C42.5489 48.3646 42.6756 48.2983 42.7707 48.232C42.8023 48.1989 42.8657 48.1657 42.8974 48.1657C42.9924 48.0994 43.1192 48.0331 43.2459 47.9668C43.3092 47.9337 43.3409 47.9005 43.4043 47.9005C43.531 47.8342 43.6261 47.768 43.7528 47.7348C43.8161 47.7017 43.8478 47.6685 43.9112 47.6685C44.0379 47.6022 44.133 47.5691 44.2597 47.5028L44.4498 47.4033C44.5765 47.337 44.6715 47.3039 44.7983 47.2376C44.8616 47.2044 44.925 47.1713 45.02 47.1381C45.1468 47.105 45.2418 47.0387 45.3685 47.0055C45.4319 46.9724 45.5269 46.9392 45.5903 46.9061C45.717 46.8729 45.8121 46.8066 45.9388 46.7735C46.0338 46.7403 46.0972 46.7072 46.1922 46.674C46.319 46.6409 46.414 46.5746 46.5407 46.5414L46.8259 46.442C46.9209 46.4088 47.0476 46.3757 47.1427 46.3094C47.2377 46.2762 47.3644 46.2431 47.4595 46.2099C47.5545 46.1768 47.6813 46.1436 47.7763 46.1105C47.903 46.0773 48.0297 46.0442 48.1248 46.011C48.2198 45.9779 48.3149 45.9447 48.4416 45.9116C48.5683 45.8784 48.6951 45.8453 48.8535 45.779C48.9168 45.7459 48.9802 45.7458 49.0436 45.7127C49.5505 44.3536 51.1028 40.9724 53.7324 40.6077C54.0175 40.5746 54.271 40.5414 54.5244 40.5414H54.7145C54.6828 40.3425 54.6511 40.1436 54.6511 39.9116C54.5561 38.453 54.9996 37.2265 55.6016 37.1934C56.0768 37.1602 56.457 37.8895 56.5203 38.1215C56.7104 38.5525 56.8371 39.116 56.8688 39.7459C56.9005 40.3094 56.8371 40.8398 56.7421 41.3039C56.8055 41.3702 56.8371 41.4365 56.9005 41.4696C57.5025 42.2652 57.5975 43.326 57.5658 44.1215C57.7876 44.0884 58.041 44.0884 58.2945 44.0552C58.3578 44.0552 58.4212 44.0552 58.4846 44.0221H58.6113C58.8964 43.9889 59.2132 43.9558 59.5301 43.9558C60.227 43.8895 60.924 43.8563 61.6527 43.8232C61.2408 43.5912 60.9874 43.4586 60.9874 43.4586ZM67.6088 63.8784C66.4683 64.9392 65.2644 65.8011 64.0605 66.4972C63.4585 66.8287 62.8566 67.1271 62.2863 67.3923C60.9874 67.9889 59.7518 68.3867 58.643 68.6851C56.2035 69.3149 54.5244 69.3149 54.5244 69.3149C55.855 70.0773 57.5341 70.0773 58.6747 69.9779C59.4667 69.9116 60.0053 69.7458 60.0053 69.7458C59.9736 70.2431 59.9102 70.7072 59.8469 71.1713C59.7518 71.6685 59.6251 72.0994 59.4667 72.4972V72.5304C59.2766 73.0276 59.0232 73.4586 58.7697 73.8563C58.738 73.8895 58.7063 73.9558 58.6747 73.9889L58.7697 73.9226C59.1816 73.6906 59.5934 73.4254 60.0053 73.1602C60.3221 72.9613 60.6389 72.7293 60.924 72.5304C61.4309 72.1657 61.9378 71.768 62.4447 71.337C62.4764 71.3039 62.5081 71.2707 62.5398 71.2707C63.015 70.8398 63.4902 70.3757 63.9021 69.9116C64.4723 69.2818 64.9792 68.6519 65.4228 68.0221L65.4545 67.9889C65.5812 67.8232 65.6762 67.6906 65.7713 67.5249L65.8029 67.4917C65.8346 67.4254 65.8663 67.3923 65.898 67.326C66.0564 67.0939 66.1831 66.895 66.3415 66.663C66.3732 66.5967 66.4049 66.5635 66.4366 66.4972C66.4999 66.3646 66.5633 66.2652 66.6583 66.1326C66.7217 66.0331 66.7534 65.9668 66.8167 65.8674C66.8801 65.7679 66.9435 65.6685 66.9752 65.5691C67.0702 65.4033 67.1652 65.2044 67.2603 65.0387L67.3553 64.8398L67.5454 64.442L67.6405 64.2431L67.6721 64.1768C67.7355 64.011 67.8306 63.8453 67.8939 63.6796C67.7672 63.7127 67.7038 63.779 67.6088 63.8784ZM38.7155 50.5193C38.3986 50.6188 38.0185 50.7845 37.6383 50.9503C36.6245 51.3812 35.484 52.011 34.4702 52.8729C34.3434 52.9724 34.2167 53.105 34.09 53.2044C33.8682 53.4033 33.6781 53.6022 33.488 53.8342L33.4247 53.9005L33.3296 54C33.2663 54.0994 33.1712 54.1657 33.1079 54.2652L33.0128 54.3646C32.9178 54.4972 32.8227 54.6298 32.7594 54.7624C32.6643 54.895 32.601 55.0276 32.5059 55.1602C31.904 56.2541 31.5555 57.5801 31.6505 59.1713V59.105C31.6505 59.0718 31.6505 59.0387 31.6822 59.0055V58.9724C31.6822 58.9392 31.7139 58.9061 31.7139 58.8398V58.8066C31.7139 58.7735 31.7456 58.7072 31.7456 58.6409C31.7456 58.5746 31.7773 58.5414 31.8089 58.4751V58.442C31.8406 58.3757 31.8406 58.3094 31.8723 58.2431V58.2099C31.904 58.1436 31.904 58.0773 31.9357 58.011V57.9779C31.9673 57.9116 31.999 57.8453 32.0307 57.7458L32.0624 57.7127C32.0941 57.6464 32.1257 57.547 32.1891 57.4807C32.2525 57.3481 32.3158 57.2486 32.3792 57.116C32.4109 57.0829 32.4426 57.0166 32.4742 56.9834L32.5059 56.9503L32.696 56.6519C32.7594 56.5856 32.8227 56.4862 32.8861 56.4199L32.9495 56.3536C33.0128 56.2873 33.0445 56.221 33.1079 56.1878L33.1712 56.1215C33.2346 56.0552 33.3296 55.9889 33.393 55.8895C33.393 55.8895 32.0307 59.1381 32.6326 61.6906V61.6575V61.5912V61.4917V61.3591V61.1934C32.6326 61.1271 32.6326 61.0608 32.6643 60.9945C32.6643 60.9282 32.6643 60.8619 32.696 60.7956V60.7624C32.696 60.6961 32.7277 60.5967 32.7277 60.5304V60.4641C32.7594 60.3646 32.7594 60.2983 32.7911 60.1989V60.1657C32.8227 60.0663 32.8544 59.9668 32.8544 59.9005C32.8544 59.8674 32.8861 59.8342 32.8861 59.8011L32.9178 59.7348C32.9495 59.6685 32.9811 59.5691 33.0128 59.5028C33.0445 59.4033 33.1079 59.3039 33.1712 59.2044C33.1712 59.1713 33.2029 59.1381 33.2029 59.1381L33.393 58.8398C33.393 58.8398 33.3296 59.6354 33.3296 60.5967C33.3296 60.7624 33.3296 60.895 33.3613 61.0608C33.3613 61.1602 33.3613 61.2597 33.393 61.3591C33.4564 60.3315 33.6464 59.3702 33.8999 58.4751C33.9633 58.2431 34.0583 57.9779 34.1217 57.7458C34.1217 57.7127 34.1533 57.6796 34.1533 57.6464C34.2484 57.4144 34.3118 57.2155 34.4068 56.9834C34.4385 56.9503 34.4385 56.9171 34.4702 56.8508C34.5652 56.6519 34.6602 56.4199 34.7553 56.221C34.787 56.1878 34.787 56.1547 34.787 56.1215C35.0087 55.6906 35.2305 55.2928 35.4523 54.9282C35.484 54.895 35.484 54.8619 35.5156 54.8287C35.6107 54.6961 35.7057 54.5635 35.8008 54.3978C35.8325 54.3646 35.8325 54.3315 35.8641 54.2983C35.8958 54.2652 35.8958 54.232 35.9275 54.1989C36.0542 54.0331 36.1493 53.8674 36.276 53.7017C36.3077 53.6685 36.3077 53.6354 36.3394 53.6354C36.4661 53.4696 36.5928 53.3039 36.7195 53.1713C36.8779 52.9724 37.0363 52.8066 37.1948 52.6077C37.3215 52.4751 37.4165 52.3425 37.5432 52.2431L37.67 52.1105C37.9234 51.8453 38.1769 51.5801 38.4303 51.3481C39.1273 50.6851 39.6976 50.2541 39.8877 50.1215C39.7609 50.1547 39.6342 50.1878 39.4758 50.221C39.2857 50.3204 39.0323 50.4199 38.7155 50.5193Z" fill="#F2D2AC"/>
<path d="M56.964 43.326C56.964 43.326 56.964 43.2597 56.9323 43.1271C56.8056 42.663 56.362 41.5359 54.6196 41.7017C52.7821 41.9006 52.1484 43.4586 51.99 43.989C51.9583 44.0884 51.9583 44.1547 51.9583 44.1547L52.0217 44.1879C52.2435 43.989 52.687 43.989 53.0989 44.2873C53.289 44.4199 53.4157 44.5525 53.5424 44.7182C53.7008 44.9834 53.7325 45.2486 53.6374 45.4475L53.5424 45.547C53.5424 45.547 53.6058 45.5801 53.7325 45.6133C54.2394 45.779 55.6651 46.0774 56.4254 45.0497C56.4571 44.9834 56.4888 44.9503 56.5204 44.884C56.362 44.8177 56.2987 44.5857 56.2987 44.2873C56.2987 44.1547 56.3304 44.0221 56.362 43.8564C56.4571 43.4586 56.7422 43.2265 56.964 43.326ZM47.8081 57.5138C46.6042 57.779 45.5587 57.9779 44.7667 58.1105C44.7984 58.1105 44.8617 58.1105 44.8934 58.1437C46.2557 58.3094 48.41 58.5414 51.0079 58.3757C55.7601 58.0774 62.0013 56.5193 67.6723 51.1492V51.116C67.7039 50.6519 67.6406 49.8564 67.102 49.2265C67.007 49.1271 66.9119 49.0276 66.7852 48.9282C66.7535 48.9282 66.7535 48.895 66.7218 48.895C66.5634 48.7956 66.4367 48.7293 66.31 48.6298L66.0248 48.431V48.3978C65.6763 48.9282 65.2645 49.4254 64.8209 49.8895C64.6625 50.0553 64.5041 50.221 64.314 50.3868C62.7617 51.8453 60.7341 53.105 58.548 54.0995C54.9364 55.7569 50.8812 56.8508 47.8081 57.5138ZM17.7742 48.8619C17.7109 48.895 17.6792 48.9613 17.6158 48.9945L17.5524 49.0608C17.4891 49.1271 17.4257 49.1934 17.394 49.2597L17.3624 49.2928L17.1723 49.5912L17.1406 49.6243C17.1406 49.6575 17.1089 49.6575 17.1089 49.6906L17.0139 49.8895V49.9558C16.9822 50.0553 16.9188 50.1547 16.8871 50.2542C16.7921 50.5194 16.6971 50.7845 16.6337 51.0166C16.602 51.0829 16.602 51.1823 16.5703 51.2155C16.5386 51.3481 16.507 51.4807 16.507 51.5138V51.547V51.5138C16.507 51.4144 16.507 51.3481 16.5386 51.2486C16.5386 51.0829 16.5703 50.884 16.5703 50.7182C16.5703 50.5856 16.602 50.4199 16.6337 50.2873C16.6337 50.2542 16.6337 50.1879 16.6654 50.1547C16.6654 50.0884 16.6971 50.0221 16.6971 49.9558C16.6971 49.8895 16.7287 49.8232 16.7287 49.7569V49.6575C16.7287 49.5912 16.7604 49.4917 16.7604 49.4254V49.2597V49.1934C16.7604 49.1602 16.7604 49.1271 16.7921 49.0939C16.8238 48.9945 16.8555 48.8619 16.8555 48.7624V48.7293C16.8871 48.663 16.8871 48.5636 16.9188 48.4973V48.4641C16.9505 48.2984 17.0139 48.1326 17.0455 47.9669V47.9006C17.0455 47.8674 17.0455 47.8343 17.0772 47.8011C17.1406 47.5359 17.2356 47.2707 17.299 47.0387V47.0055C17.3624 46.8066 17.4574 46.5746 17.5208 46.3757V46.3426C17.5524 46.2431 17.5841 46.1768 17.6158 46.0774C17.6792 45.9448 17.7109 45.8122 17.7742 45.6796C17.7742 45.6464 17.8059 45.5801 17.8693 45.4475C17.9009 45.4144 17.9009 45.3481 17.9326 45.3149C17.9643 45.2486 17.996 45.1823 18.0277 45.0829L18.0593 45.0166C18.0277 44.9834 17.9643 44.9834 17.9326 44.9503H17.9009L17.8376 44.9171C17.5524 44.7845 17.2356 44.6519 16.9188 44.5525H16.8555C16.6337 44.4862 16.4436 44.4531 16.2218 44.4199C16.0951 44.4199 15.9684 44.3868 15.8417 44.3868H15.5248C15.3664 44.3868 15.208 44.4199 15.0496 44.4199C14.9863 44.4199 14.9546 44.4199 14.8912 44.4531C14.8279 44.4531 14.7328 44.4862 14.6694 44.4862C14.6378 44.4862 14.6061 44.4862 14.5744 44.5194C14.511 44.5194 14.4794 44.5525 14.416 44.5525C14.321 44.5856 14.1942 44.6188 14.0992 44.6519C14.0675 44.6519 14.0041 44.6851 13.9725 44.6851C13.8457 44.7514 13.6873 44.7845 13.5606 44.8508C13.4972 44.884 13.4656 44.9171 13.4022 44.9171L13.2121 45.0166L13.1487 45.0497C13.0854 45.0829 13.022 45.116 12.9587 45.1823C12.8953 45.2155 12.8319 45.2486 12.7686 45.3149C12.7052 45.3481 12.6418 45.4144 12.5785 45.4475C12.5468 45.4807 12.4834 45.5138 12.4518 45.547C12.3567 45.6464 12.23 45.7459 12.1349 45.8453L11.9765 46.0111C11.8815 46.1105 11.8181 46.21 11.7231 46.3094L11.6914 46.3426C11.6597 46.4089 11.5964 46.442 11.5647 46.5083L11.4696 46.6078C11.3112 46.8398 11.1528 47.105 11.0261 47.3702C10.9944 47.4033 10.9944 47.4365 10.9627 47.4696C10.8994 47.6022 10.8677 47.7348 10.8043 47.8674C10.7726 47.9337 10.7726 47.9669 10.741 48.0332C10.741 48.0663 10.7726 48.0995 10.7726 48.1326C10.8043 48.2652 10.836 48.3647 10.8677 48.4973V48.5635C10.8994 48.663 10.9627 48.7956 10.9944 48.895C11.1211 49.2265 11.2479 49.5249 11.4063 49.7901C11.438 49.8232 11.438 49.8564 11.4696 49.8895V49.9227L11.5013 49.9558C11.5964 50.1547 11.6914 50.3205 11.7864 50.4531C11.9449 50.6851 12.0716 50.8508 12.1666 50.9834L12.23 51.0497C12.23 51.0829 12.2617 51.0829 12.2617 51.0829L12.325 51.1492C12.325 51.0829 12.2933 51.0166 12.2933 50.9834C12.1983 50.5525 12.1666 50.1547 12.1666 49.7238V49.6575C12.1666 49.3923 12.1666 49.1271 12.1983 48.895L12.2933 49.1934C12.325 49.326 12.3884 49.4586 12.4201 49.5912V49.6575C12.6102 50.221 12.8319 50.6851 13.0537 51.0497C13.3072 51.5138 13.5289 51.8122 13.6873 52.0111C13.719 52.0442 13.7507 52.0774 13.7507 52.1105L13.8141 52.1768C13.719 51.7127 13.6556 51.2818 13.6556 50.8508V50.4199C13.6556 50.221 13.6556 50.0553 13.6873 49.8895C13.7507 50.1879 13.8457 50.4862 13.9408 50.7514V50.7845C14.2893 51.7459 14.7011 52.442 14.9863 52.8729L15.0179 52.9061C15.0813 52.9724 15.113 53.0387 15.1447 53.105C15.1763 53.1381 15.208 53.1713 15.208 53.2044L15.2714 53.2707L15.3031 53.3039V53.2376C15.3031 53.1713 15.2714 53.105 15.2714 53.0387C15.2397 52.8066 15.208 52.5746 15.1763 52.3757C15.1763 52.2431 15.1447 52.0774 15.1447 51.9448V51.547V51.4807V51.2155C15.1447 51.0497 15.1763 50.8508 15.1763 50.6851C15.208 50.7845 15.2397 50.9171 15.2714 51.0166C15.3031 51.0829 15.3348 51.1823 15.3664 51.2486V51.2818L15.3981 51.3149C15.4298 51.4144 15.4615 51.5138 15.4932 51.5801C15.5565 51.7459 15.6199 51.9116 15.7149 52.0442C15.81 52.2431 15.8733 52.4089 15.9684 52.5414C16.0317 52.6409 16.0634 52.7072 16.0951 52.7735C16.1585 52.8729 16.2218 52.9724 16.2535 53.0387C16.3169 53.105 16.3486 53.1713 16.3802 53.2376L16.4119 53.2707C16.4436 53.337 16.507 53.3702 16.5386 53.4365C16.5703 53.4696 16.602 53.5028 16.602 53.5359C16.6654 53.6022 16.6971 53.6685 16.7287 53.6685L16.7604 53.7017V53.6022C16.7921 53.337 16.8238 53.0387 16.8555 52.7735V52.674C16.8871 52.3426 16.9505 52.0442 17.0139 51.7459C17.0139 51.7127 17.0139 51.6796 17.0455 51.6133V51.5801C17.0455 51.547 17.0455 51.5138 17.0772 51.4807C17.0772 51.4144 17.1089 51.3812 17.1089 51.3149C17.1406 51.0829 17.204 50.8508 17.2356 50.6188C17.2673 50.4199 17.299 50.221 17.3307 50.0553V49.989C17.3307 49.9558 17.3307 49.9227 17.3624 49.9227V49.8564C17.3624 49.8232 17.394 49.7569 17.394 49.7238C17.394 49.6906 17.394 49.6575 17.4257 49.6243C17.4257 49.558 17.4574 49.4917 17.4574 49.4586C17.4574 49.4254 17.4891 49.3591 17.4891 49.326C17.4891 49.2597 17.5208 49.1934 17.5208 49.1602C17.5208 49.1271 17.5208 49.0939 17.5524 49.0608C17.5524 49.0276 17.5524 48.9945 17.5841 48.9945C17.5841 48.9282 17.6158 48.895 17.6158 48.8619V48.7624L17.7742 48.8619ZM56.1719 62.7182C56.6155 62.5525 56.9957 62.4199 57.3125 62.2873C57.9144 62.0221 58.2312 61.8232 58.2312 61.7569C58.1996 61.6906 57.8511 61.7238 57.2174 61.8895C56.9006 61.9558 56.5204 62.0221 56.0452 62.1547C55.8235 62.221 55.57 62.2542 55.3166 62.2873C55.0631 62.3204 54.778 62.3867 54.4928 62.4199C53.9226 62.5193 53.289 62.5856 52.592 62.6519L51.5465 62.7514C51.198 62.7845 50.8178 62.7845 50.4376 62.8177C48.9169 62.8508 47.2378 62.7845 45.527 62.453C44.64 62.2873 43.4044 61.8564 42.549 61.3591L42.5173 61.326C43.0242 59.4365 44.9251 59.1713 44.9251 59.1713L44.8617 59.1381H44.7667C44.4816 59.105 44.2598 59.0718 44.038 59.0387C43.8796 59.0055 43.7529 59.0055 43.6578 58.9724C43.5628 58.9724 43.4678 58.9392 43.4361 58.9392C42.2955 58.8729 41.6619 59.8674 41.4718 60.2983L41.3768 60.4972C41.2184 60.895 41.0917 61.326 41.06 61.8232C40.9966 62.7182 41.2184 63.6796 41.8837 64.5083C42.3272 65.0718 43.0876 65.5691 44.0697 65.9669C43.2143 65.4033 42.4539 64.3094 42.4223 62.6188C43.4044 63.0497 44.5132 63.3149 45.3686 63.4807C47.1745 63.8453 48.9486 63.8785 50.501 63.779C50.8812 63.7459 51.293 63.7127 51.6415 63.6796C52.0217 63.6133 52.3702 63.5801 52.7187 63.547C53.4157 63.4144 54.0176 63.3149 54.6196 63.1823C54.9047 63.116 55.1898 63.0497 55.4433 62.9503C55.7284 62.884 55.9502 62.8177 56.1719 62.7182Z" fill="#F2D2AC"/>
<path d="M54.6832 40.5746C55.6336 40.6078 56.2672 40.9061 56.7108 41.3702C56.8058 40.9392 56.8692 40.4089 56.8375 39.8122C56.8058 39.1823 56.6791 38.6188 56.489 38.1879C56.4256 37.9227 56.0454 37.2265 55.5702 37.2597C54.9683 37.2928 54.5247 38.5194 54.6198 39.9779C54.6198 40.1768 54.6515 40.3757 54.6832 40.5746ZM56.2672 44.3205C56.2672 44.5857 56.3623 44.8177 56.489 44.9171C56.7108 45.0497 56.9959 44.7846 57.1226 44.3536C57.1226 44.3205 57.1543 44.2873 57.1543 44.2542C57.2493 43.8564 57.1543 43.4586 56.9325 43.3591C56.7108 43.2265 56.4256 43.4917 56.2989 43.9227C56.2989 44.0553 56.2672 44.1879 56.2672 44.3205ZM51.9586 45.0497C52.0536 45.2155 52.212 45.3812 52.4021 45.5138C52.814 45.779 53.2575 45.8122 53.5109 45.5801L53.606 45.4807C53.701 45.2818 53.6693 45.0166 53.5109 44.7514C53.4159 44.5857 53.2575 44.4199 53.0674 44.3205C52.6555 44.0553 52.212 44.0221 51.9902 44.221C51.9586 44.2542 51.9269 44.2873 51.8952 44.3536C51.8002 44.5194 51.8318 44.7845 51.9586 45.0497ZM67.7042 51.116C67.6725 51.116 67.6725 51.116 67.7042 51.116V51.116ZM67.1973 60.2984C66.5953 60.895 65.93 61.4586 65.1697 61.989C61.9065 64.3094 57.3444 66.1326 54.1129 66.5636C51.6734 66.9613 49.2973 67.0276 47.238 66.7625C46.0342 66.5967 44.9887 66.3315 44.0699 65.9669C43.0878 65.5691 42.3274 65.0718 41.8839 64.5083C41.2186 63.6796 41.0285 62.6851 41.0602 61.8232C41.0919 61.3591 41.1869 60.895 41.377 60.4973L41.472 60.2984C41.6938 59.8674 42.2958 58.8398 43.4363 58.9392C43.468 58.9392 43.563 58.9392 43.6581 58.9724C43.7531 58.9724 43.9115 59.0055 44.0382 59.0387C44.26 59.0718 44.4818 59.105 44.7669 59.1381H44.8619C47.9984 59.5359 51.0081 59.5028 53.8594 59.0387C58.0097 58.3757 61.8431 56.8177 65.2647 54.3978C65.4548 54.2652 65.6132 54.1326 65.8033 54L67.6725 51.0829C62.0015 56.4862 55.7603 58.0442 51.0081 58.3426C48.4103 58.5083 46.2559 58.3094 44.8936 58.1105C44.8303 58.1105 44.7986 58.1105 44.7669 58.0774C44.355 58.0111 44.0382 57.9779 43.7848 57.9448C43.6581 57.9448 43.563 57.9116 43.4996 57.9116C43.1512 57.8785 42.8027 57.9448 42.4858 58.0442C41.8522 58.2431 41.282 58.7072 40.8701 59.3039C40.3632 60.0332 40.0464 61.0276 40.0464 62.0221C40.0464 62.8509 40.2365 63.7127 40.6483 64.5083C40.68 64.5415 40.68 64.5746 40.7117 64.6078C40.7751 64.7072 40.8067 64.7735 40.8701 64.8729C40.9335 64.9724 41.0285 65.105 41.1236 65.2044C42.1057 66.4973 44.26 67.4254 47.1113 67.8232C49.0439 68.0884 51.2933 68.0553 53.7327 67.6906C60.9561 66.3315 64.3776 63.8785 65.9617 62.1879C66.0884 62.0553 66.1835 61.9558 66.2785 61.8232C66.8488 61.1271 67.1022 60.5967 67.1973 60.3978V60.3647C67.229 60.2984 67.2289 60.2652 67.2289 60.2652L67.1973 60.2984Z" fill="#664F44"/>
<path d="M44.2283 34.1105C44.0065 33.9779 43.7531 33.8785 43.4996 33.8122C43.3412 33.779 43.1828 33.7459 42.9927 33.7127C42.9293 33.7127 42.866 33.7127 42.8026 33.6796C41.9472 33.6133 41.2186 33.7459 41.2186 33.7459C41.0601 33.779 40.9017 33.8122 40.775 33.8785C39.6345 34.2431 38.8425 34.873 38.2722 35.6022C37.8287 36.1989 37.5118 36.8288 37.3534 37.4586C37.3218 37.5249 37.3218 37.558 37.3218 37.6243C37.2901 37.7901 37.2267 37.9558 37.195 38.0884C37.1 38.6188 37.0366 39.0829 37.0366 39.4807C37.0366 40.0111 37.0683 40.3426 37.0683 40.3426C37.2584 39.8785 37.4802 39.4807 37.7019 39.0829C38.2405 38.1216 38.8108 37.326 39.4127 36.6962C40.5532 35.4696 41.7255 34.8067 42.6125 34.4752C43.563 34.1437 44.2283 34.1105 44.2283 34.1105ZM57.9463 32.4199L57.9146 32.3536C57.7879 32.1879 57.6295 32.0221 57.4394 31.8895C56.9958 31.5912 56.3939 31.4254 55.5702 31.5912C55.5702 31.5912 54.5881 31.8232 54.0178 32.5194C54.0178 32.5194 55.7286 31.7569 57.5661 33.116C57.7245 33.2486 57.9146 33.3812 58.073 33.547C58.2314 33.7127 58.4215 33.8785 58.5799 34.1105C58.5799 34.1105 58.5165 33.2818 58.0413 32.5525C58.0096 32.4862 57.9779 32.4531 57.9463 32.4199Z" fill="#E9B784"/>
<path d="M44.4501 45.6132C45.1154 45.4143 45.8124 45.2154 46.6044 45.0165C46.7311 44.3867 46.7628 43.6243 46.6678 42.7956C46.446 40.8729 45.6223 39.3812 44.7986 39.4806C43.9749 39.5801 43.4996 41.2376 43.7214 43.1602C43.8481 44.1547 44.1016 45.0165 44.4501 45.6132Z" fill="#664F44"/>
<path d="M40.6799 2.28723L38.9691 2.68502L39.3176 5.93364L34.7872 3.51375L32.918 4.11044L32.9496 4.14358L38.4622 10.7071L38.5256 10.674L38.5889 10.6408C38.7473 10.5414 38.9374 10.4088 39.0958 10.3093C39.1592 10.2762 39.2225 10.243 39.2859 10.1767C39.5394 10.011 39.7928 9.84524 40.0463 9.71265L37.7018 6.89497L41.4719 8.81762C41.5986 8.75132 41.6937 8.68502 41.8204 8.61872L41.4719 5.80104L43.1827 7.88944H43.2144C43.3728 7.82314 43.4995 7.7237 43.6579 7.6574L43.7213 7.62425L43.7846 7.5911C43.8163 7.5911 43.848 7.55795 43.848 7.55795L44.0381 7.4585C44.0381 7.4585 44.0698 7.4585 44.0698 7.42535C44.2599 7.32591 44.4816 7.22646 44.6717 7.12701L40.6799 2.28723Z" fill="#FFD250"/>
<path d="M39.0008 2.78455V2.6851V2.78455ZM39.0008 2.6851L39.2542 2.6188C38.8424 2.41991 38.3355 2.28731 37.7652 2.18787C36.6247 2.02212 35.1674 2.18787 33.5199 2.6188C31.8725 3.04974 30.0033 3.81218 28.0391 4.8398C24.0789 6.89505 19.7069 10.0442 15.4616 14.0884C13.9726 15.4807 12.6103 16.9392 11.343 18.3647L16.4754 24.9945C17.8694 23.4033 19.3584 21.8122 21.0058 20.2542C23.1918 18.1658 25.4095 16.3094 27.5955 14.7183C29.7182 13.1602 31.8408 11.8343 33.8367 10.7735L32.9497 6.53041L32.9813 4.14367L32.9497 4.11052L34.8189 3.51383L38.4622 5.46963L38.3672 4.14367L39.0008 2.6851Z" fill="#4D9ED7"/>
<path d="M39.0008 2.68506L38.3672 4.14362L38.4623 5.50274L39.3493 5.96683L39.0008 2.68506ZM37.7019 6.895L41.5037 8.85081L40.0463 9.71268L37.7019 6.895ZM41.5037 5.80108L41.8521 8.61876L43.2144 7.88948L41.5037 5.80108Z" fill="#132134"/>
<path d="M55.8236 4.77343H56.5206C57.1542 4.77343 57.7562 4.87288 58.3264 5.00548C58.3581 5.00548 58.3898 5.00548 58.4215 5.03863H58.4532L58.5165 5.07178H58.5799C58.5165 5.03863 58.4532 4.97233 58.3898 4.93918C57.7562 4.67399 57.0909 4.50824 56.3939 4.40879C52.9723 3.9447 49.0438 5.27067 46.8261 6.19885C46.6994 6.26515 46.5727 6.2983 46.4459 6.36459C46.2559 6.46404 46.0658 6.53034 45.8757 6.62979C45.5589 6.76238 45.2421 6.92813 44.8936 7.09388C44.8302 7.12702 44.7985 7.12703 44.7352 7.16017C44.5451 7.25962 44.3233 7.35907 44.1332 7.45852C44.1332 7.45852 44.1015 7.45852 44.1015 7.49167L43.9114 7.59111C43.8798 7.59111 43.8481 7.62426 43.8481 7.62426H43.7214L43.6897 7.65741C43.5313 7.72371 43.4045 7.79001 43.2461 7.88946H43.2145C43.1828 7.9226 43.1511 7.92261 43.1194 7.95575H43.0877C43.056 7.95575 43.0244 7.9889 43.0244 7.9889C42.8026 8.1215 42.5808 8.22095 42.3591 8.35354C42.2007 8.45299 42.0422 8.51929 41.8838 8.61874H41.8522C41.7254 8.68504 41.6304 8.75133 41.5037 8.81763C41.1235 9.01653 40.775 9.24857 40.3948 9.48062C40.3631 9.51377 40.3315 9.51377 40.2681 9.54691C40.2364 9.58006 40.2047 9.58006 40.173 9.61321C40.1414 9.64636 40.1097 9.64636 40.078 9.67951L40.0463 9.71266C39.7929 9.87841 39.5394 10.011 39.286 10.1767C39.2226 10.2099 39.1592 10.243 39.0959 10.3093C38.9375 10.4088 38.7474 10.5414 38.589 10.6408L38.5256 10.674L38.4623 10.7071L37.0366 11.7016C36.2446 12.2651 35.4842 12.8287 34.7239 13.4254C34.6288 13.4917 34.5338 13.5911 34.4387 13.6574C32.4428 15.2154 30.5419 16.906 28.7044 18.6298C26.7719 20.4861 24.9027 22.3756 23.1602 24.2983C22.2098 25.2928 21.386 26.1878 20.7524 26.9171C19.4218 28.4088 18.6931 29.337 18.7248 29.3701C18.7248 29.3701 18.8515 29.2707 19.0733 29.0386C18.9149 29.2375 18.7248 29.4696 18.5664 29.6685C21.4811 26.4198 24.6809 23.1049 28.1342 19.9889C30.2251 18.0994 32.4111 16.2762 34.6605 14.5856C35.6426 13.8563 36.6564 13.127 37.6702 12.4309C37.987 12.1988 38.3355 12 38.6523 11.7679C38.8108 11.6685 38.9692 11.569 39.1592 11.4696C39.2543 11.4033 39.3493 11.337 39.4444 11.3038C39.6345 11.2044 39.7929 11.0718 39.983 10.9723C40.1414 10.8729 40.3315 10.7734 40.4899 10.6408C40.5849 10.5745 40.6799 10.5414 40.775 10.4751L41.4403 10.0773C41.567 10.011 41.6938 9.91156 41.8205 9.84526C42.2323 9.61321 42.6442 9.38117 43.0877 9.14912C43.1194 9.11598 43.1511 9.11598 43.1828 9.08283L43.3729 8.98338C43.4679 8.95023 43.5313 8.88393 43.6263 8.85078C43.658 8.81763 43.6897 8.81763 43.7214 8.78448L43.9114 8.68504C43.9114 8.68504 43.9431 8.68504 43.9431 8.65189H43.9748C44.1649 8.55244 44.355 8.45299 44.5134 8.38669C44.5451 8.38669 44.5767 8.35354 44.6084 8.3204L44.7985 8.22095C45.0203 8.1215 45.2104 8.02205 45.4321 7.92261C45.4955 7.88946 45.5589 7.85631 45.5905 7.82316C45.6222 7.82316 45.6539 7.79001 45.6856 7.79001C45.749 7.75686 45.8123 7.72371 45.8757 7.72371C46.1291 7.62426 46.3509 7.49167 46.6044 7.39222C46.8261 7.29277 47.0162 7.19332 47.238 7.09388C48.4419 6.56349 49.5507 6.13255 50.5962 5.76791C52.5604 5.20437 54.3029 4.83973 55.8236 4.77343Z" fill="white"/>
</g>
<defs>
<clipPath id="clip0_4470_3087">
<rect width="71" height="84" fill="white"/>
</clipPath>
</defs>
</svg>
