<svg width="68" height="66" viewBox="0 0 68 66" fill="none" xmlns="http://www.w3.org/2000/svg">
<path d="M34.1315 0C52.8341 0 68 15.1287 68 33.7915C68 48.7217 58.2957 61.3881 44.8386 65.8564C43.146 66.1691 42.5244 65.1234 42.5244 64.2308C42.5244 63.4251 42.556 60.763 42.5704 57.9394C51.9929 59.9835 53.9811 53.9524 53.9811 53.9524C55.5217 50.0466 57.7416 49.0082 57.7416 49.0082C60.8143 46.9108 57.5099 46.9538 57.5099 46.9538C54.1089 47.1923 52.318 50.4361 52.318 50.4361C49.2973 55.6022 44.395 54.1085 42.4623 53.2454C42.1584 51.0611 41.2805 49.5706 40.312 48.7268C47.8345 47.8721 55.7427 44.9746 55.7427 32.0267C55.7427 28.3376 54.4197 25.323 52.253 22.9567C52.6046 22.1054 53.7638 18.6686 51.9249 14.014C51.9249 14.014 49.0809 13.1058 42.6086 17.4779C39.9072 16.7289 37.0098 16.3537 34.1315 16.3409C31.2532 16.3537 28.3536 16.7289 25.6469 17.4779C19.1824 13.1058 16.3423 14.014 16.3423 14.014C14.4989 18.6686 15.6586 22.1054 16.0103 22.9567C13.8388 25.323 12.5247 28.3374 12.5247 32.0267C12.5247 45.0053 20.4478 47.8633 27.9894 48.6997C26.7747 49.7484 25.6923 51.805 25.6923 54.9574C25.6923 59.4787 25.7316 63.1177 25.7316 64.2308C25.7316 65.13 25.122 66.1837 23.405 65.8519C9.95536 61.3786 0.263237 48.7167 0.263237 33.7915C0.263237 15.1287 15.427 0 34.1315 0Z" fill="#161614"/>
</svg>
