<svg width="85" height="65" viewBox="0 0 85 65" fill="none" xmlns="http://www.w3.org/2000/svg">
<path d="M5.79561 64.6549H19.3182V31.814L0 17.3253V58.8596C0 62.0616 2.5935 64.6552 5.79561 64.6552V64.6549Z" fill="#4285F4"/>
<path d="M65.6816 64.6549H79.2045C82.4064 64.6549 84.9999 62.0614 84.9999 58.8594V17.3253L65.6816 31.814V64.6549Z" fill="#34A853"/>
<path d="M65.6816 6.7003V31.814L84.9999 17.3253V9.5981C84.9999 2.43586 76.8236 -1.65477 71.0908 2.64354L65.6816 6.7003Z" fill="#FBBC04"/>
<path fill-rule="evenodd" clip-rule="evenodd" d="M19.3184 31.8139V6.7002L42.5001 24.0867L65.6819 6.7002V31.8139L42.5001 49.2002L19.3184 31.8139Z" fill="#EA4335"/>
<path d="M0 9.59799V17.3252L19.3182 31.8139V6.70018L13.9091 2.64343C8.17627 -1.65488 0 2.43574 0 9.59766V9.59799Z" fill="#C5221F"/>
</svg>
