<svg width="33" height="34" viewBox="0 0 33 34" fill="none" xmlns="http://www.w3.org/2000/svg">
<g clip-path="url(#clip0_4470_3481)">
<path d="M32.9826 17.3181C32.9826 15.9251 32.8703 14.9086 32.6273 13.8545H16.8287V20.1416H26.1021C25.9152 21.7041 24.9056 24.0571 22.662 25.6382L22.6305 25.8487L27.6258 29.7448L27.9719 29.7796C31.1502 26.8242 32.9826 22.4758 32.9826 17.3181Z" fill="#4285F4"/>
<path d="M16.8287 33.8834C21.3719 33.8834 25.186 32.3774 27.9719 29.7798L22.662 25.6384C21.2411 26.6361 19.334 27.3326 16.8287 27.3326C12.3789 27.3326 8.60225 24.3773 7.25596 20.2925L7.05863 20.3094L1.8645 24.3565L1.79657 24.5466C4.56365 30.0809 10.2474 33.8834 16.8287 33.8834Z" fill="#34A853"/>
<path d="M7.25593 20.2925C6.9007 19.2383 6.69512 18.1088 6.69512 16.9418C6.69512 15.7746 6.9007 14.6452 7.23724 13.5911L7.22783 13.3666L1.96862 9.25439L1.79654 9.3368C0.656099 11.6334 0.00170898 14.2123 0.00170898 16.9418C0.00170898 19.6712 0.656099 22.2501 1.79654 24.5466L7.25593 20.2925Z" fill="#FBBC05"/>
<path d="M16.8287 6.55071C19.9884 6.55071 22.1198 7.92486 23.3351 9.0732L28.084 4.40482C25.1674 1.67534 21.3719 0 16.8287 0C10.2474 0 4.56364 3.80242 1.79657 9.33663L7.23727 13.5909C8.60225 9.50612 12.3789 6.55071 16.8287 6.55071Z" fill="#EB4335"/>
</g>
<defs>
<clipPath id="clip0_4470_3481">
<rect width="33" height="34" fill="white"/>
</clipPath>
</defs>
</svg>
