<svg width="28" height="28" viewBox="0 0 28 28" fill="none" xmlns="http://www.w3.org/2000/svg">
<path d="M24 0H4C2.93913 0 1.92172 0.421427 1.17157 1.17157C0.421427 1.92172 0 2.93913 0 4V24C0 25.0609 0.421427 26.0783 1.17157 26.8284C1.92172 27.5786 2.93913 28 4 28H24C25.0609 28 26.0783 27.5786 26.8284 26.8284C27.5786 26.0783 28 25.0609 28 24V4C28 2.93913 27.5786 1.92172 26.8284 1.17157C26.0783 0.421427 25.0609 0 24 0ZM8.31 23.86H4.15V10.5H8.31V23.86ZM6.23 8.67C5.75335 8.67 5.2874 8.52866 4.89108 8.26384C4.49475 7.99903 4.18586 7.62264 4.00345 7.18227C3.82104 6.7419 3.77332 6.25733 3.86631 5.78983C3.9593 5.32234 4.18883 4.89292 4.52587 4.55587C4.86292 4.21883 5.29234 3.9893 5.75983 3.89631C6.22733 3.80332 6.7119 3.85104 7.15227 4.03345C7.59264 4.21586 7.96903 4.52475 8.23384 4.92108C8.49866 5.3174 8.64 5.78335 8.64 6.26C8.64132 6.57686 8.57989 6.89084 8.45924 7.18383C8.3386 7.47682 8.16113 7.74302 7.93708 7.96708C7.71302 8.19113 7.44682 8.3686 7.15383 8.48924C6.86084 8.60989 6.54686 8.67132 6.23 8.67ZM23.86 23.86H19.71V17.36C19.71 15.81 19.71 13.82 17.55 13.82C15.39 13.82 15.06 15.51 15.06 17.25V23.86H10.91V10.5H14.91V12.32H15C15.3993 11.6396 15.9757 11.0803 16.6678 10.7017C17.3599 10.3231 18.1417 10.1393 18.93 10.17C23.13 10.17 23.93 12.93 23.93 16.53L23.86 23.86Z" fill="#150B28"/>
</svg>
