<svg width="66" height="66" viewBox="0 0 66 66" fill="none" xmlns="http://www.w3.org/2000/svg">
<path d="M0 4.84081C0 2.24167 2.1847 0.131958 4.87781 0.131958H61.1222C63.8163 0.131958 66 2.24167 66 4.84081V61.1599C66 63.7598 63.8163 65.868 61.1222 65.868H4.87781C2.18496 65.868 0 63.76 0 61.1606V4.84004V4.84081Z" fill="#006699"/>
<path d="M20.0568 55.1443V25.5497H10.1805V55.1443H20.0578H20.0568ZM15.1207 21.5098C18.5641 21.5098 20.7078 19.2372 20.7078 16.3972C20.6433 13.4925 18.5641 11.2834 15.1862 11.2834C11.806 11.2834 9.59839 13.4925 9.59839 16.397C9.59839 19.237 11.7413 21.5095 15.056 21.5095H15.12L15.1207 21.5098ZM25.5235 55.1443H35.399V38.6191C35.399 37.7358 35.4634 36.8501 35.7243 36.2192C36.438 34.4513 38.063 32.6212 40.7919 32.6212C44.3647 32.6212 45.7948 35.3349 45.7948 39.3137V55.1443H55.67V38.1756C55.67 29.0858 50.7984 24.8559 44.3007 24.8559C38.9735 24.8559 36.6339 27.8215 35.334 29.8413H35.3998V25.5507H25.524C25.6529 28.3271 25.5232 55.1453 25.5232 55.1453L25.5235 55.1443Z" fill="white"/>
</svg>
