<svg width="67" height="66" viewBox="0 0 67 66" fill="none" xmlns="http://www.w3.org/2000/svg">
<g clip-path="url(#clip0_4470_3215)">
<path d="M35.2525 0H39.567V6.90698C47.7024 6.95302 55.845 6.82225 63.9725 6.94504C65.7227 6.7762 67.0925 8.14962 66.9178 9.91473C67.0469 24.2505 66.8874 38.5937 66.9939 52.9375C66.9178 54.4878 67.1461 56.2068 66.2634 57.5802C65.1523 58.3937 63.7064 58.2863 62.4048 58.3477C54.7948 58.3096 47.1849 58.325 39.567 58.325V65.9994H34.8342C23.2367 63.8659 11.616 61.9166 0.0110858 59.8598C0.0031715 41.9557 0.0110858 24.051 0.0110858 6.15427C11.7523 4.10612 23.4948 2.01868 35.2525 0Z" fill="#D24625"/>
<path d="M39.5663 9.20935H64.6791V56.0233H39.5663V49.8838H57.8302V46.814H39.5663V42.9768H57.8302V39.907H39.5742C39.5663 38.4028 39.5663 36.8987 39.5596 35.3945C42.5731 36.3381 46.0049 36.3154 48.6988 34.4883C51.6137 32.7465 53.1357 29.4232 53.3866 26.1078C50.0461 26.0845 46.705 26.0925 43.3719 26.0925C43.3645 22.7538 43.4096 19.4157 43.3037 16.085C42.0556 16.3306 40.8076 16.5915 39.5669 16.8598V9.20935H39.5663Z" fill="white"/>
<path d="M44.9013 14.4813C50.1905 14.7269 54.6341 19.2161 54.916 24.5348C51.5749 24.5735 48.2344 24.5581 44.8934 24.5581C44.8934 21.1967 44.886 17.8353 44.9013 14.4813Z" fill="#D24625"/>
<path d="M12.2162 20.2758C16.3487 20.4753 21.356 18.6255 24.7805 21.7493C28.0607 25.7633 27.1932 33.1455 22.3301 35.5485C20.6029 36.4381 18.6243 36.316 16.7444 36.2539C16.7365 39.2549 16.7298 42.2553 16.7365 45.2563C15.2274 45.1241 13.718 44.9962 12.2082 44.8726C12.1401 36.6757 12.1254 28.4721 12.2162 20.2758Z" fill="white"/>
<path d="M16.7364 24.4279C18.2359 24.3585 20.0927 24.0828 21.1052 25.5023C21.9727 27.0065 21.927 28.9865 21.2038 30.5367C20.3363 32.1176 18.3729 31.9641 16.8582 32.1483C16.6981 29.5771 16.7139 27.0058 16.7364 24.4279Z" fill="#D24625"/>
</g>
<defs>
<clipPath id="clip0_4470_3215">
<rect width="67" height="66" fill="white"/>
</clipPath>
</defs>
</svg>
