<svg width="61" height="60" viewBox="0 0 61 60" fill="none" xmlns="http://www.w3.org/2000/svg">
<g clip-path="url(#clip0_4470_3221)">
<path d="M31.8901 0H36.0356V6.08372C42.7312 5.2253 49.7318 5.28837 56.1569 7.57674C58.5756 8.4067 61.2095 10.3044 60.9744 13.2067C61.0021 23.9297 61.0021 34.6599 60.9744 45.3907C61.2173 48.3282 58.5135 50.2119 56.067 51.0346C49.6342 53.1834 42.7101 53.4413 36.0356 52.4858V60H31.7171C21.1604 58.0605 10.5761 56.2884 0.00610352 54.4186V5.59535C10.6321 3.72558 21.2713 1.90493 31.8901 0Z" fill="#A33639"/>
<path d="M36.0347 8.20462C42.224 7.3462 48.6702 7.37411 54.6871 9.22323C56.3434 9.84444 58.5614 10.5907 58.9357 12.5793C58.6585 14.2052 56.9744 14.9375 55.6431 15.5235C49.3566 17.6584 42.5573 17.8605 36.0347 16.8698V8.20462Z" fill="white"/>
<path d="M50.2301 19.0605C53.2798 18.6073 56.461 17.9442 58.9291 15.9489C58.7772 18.9489 59.1648 21.9835 58.7212 24.9555C57.4808 26.4419 55.5123 26.9721 53.7379 27.4811C47.95 28.8558 41.9125 28.891 36.0348 28.1302V19.0884C40.7483 19.6897 45.5189 19.6803 50.2301 19.0605ZM14.1524 18.3416C15.7676 18.2233 17.3751 18.1116 18.9971 17.9861C21.3193 25.8 23.5235 33.6558 25.818 41.4765C24.2166 41.3715 22.6158 41.2532 21.0282 41.107C20.6016 39.3607 20.1579 37.6187 19.6974 35.8811C17.5707 35.8697 15.4446 35.8094 13.3206 35.7003C12.9123 37.351 12.4964 38.9997 12.073 40.6465C10.7195 40.5422 9.36561 40.4445 8.01123 40.3535C10.0357 33.0073 12.1423 25.6884 14.1524 18.3416Z" fill="white"/>
<path d="M14.1873 31.9328C14.8876 28.6672 15.9273 25.4791 16.392 22.1654C17.0158 25.4724 17.979 28.6956 18.7691 31.9607C17.237 31.9535 15.7121 31.9462 14.1873 31.9328Z" fill="#A33639"/>
<path d="M50.2717 30.2166C53.3142 29.7633 56.4754 29.1003 58.9286 27.1122C58.7899 30.1049 59.1437 33.1256 58.7345 36.0982C57.5212 37.5913 55.5533 38.1215 53.7856 38.6311C47.9843 40.0186 41.9264 40.0538 36.0348 39.2997V30.2512C40.7621 30.857 45.5473 30.8453 50.2717 30.2166ZM50.2439 41.3794C53.2937 40.9329 56.461 40.2631 58.9286 38.275C58.7827 41.2677 59.1576 44.3029 58.7206 47.275C56.7594 49.4238 53.6475 49.8212 50.9504 50.3727C45.9991 51.1307 40.9638 51.1495 36.0071 50.4285C36.0553 47.4218 36.0348 44.4218 36.0348 41.4151C40.7529 42.02 45.5289 42.008 50.2439 41.3794Z" fill="white"/>
</g>
<defs>
<clipPath id="clip0_4470_3221">
<rect width="61" height="60" fill="white"/>
</clipPath>
</defs>
</svg>
