<svg width="79" height="77" viewBox="0 0 79 77" fill="none" xmlns="http://www.w3.org/2000/svg">
<g clip-path="url(#clip0_4470_3162)">
<path d="M41.7285 25.6675C47.9848 25.6675 53.0566 20.6396 53.0566 14.4375C53.0566 8.23535 47.9848 3.20752 41.7285 3.20752C35.4721 3.20752 30.4004 8.23535 30.4004 14.4375C30.4004 20.6396 35.4721 25.6675 41.7285 25.6675Z" fill="#7B83EB"/>
<path opacity="0.1" d="M40.9202 16.8438H30.6602L30.7111 17.0675L30.716 17.0868L30.7694 17.2937C31.5149 20.0963 33.3237 22.505 35.8181 24.017C38.3125 25.5289 41.2997 26.0271 44.1558 25.4076V20.0513C44.1532 19.2014 43.8115 18.387 43.2053 17.786C42.5991 17.185 41.7776 16.8463 40.9202 16.8438Z" fill="black"/>
<path opacity="0.2" d="M38.4929 19.25H31.4927C32.4114 21.1702 33.8609 22.7926 35.6728 23.9286C37.4847 25.0646 39.5846 25.6676 41.7285 25.6675V22.4575C41.7259 21.6076 41.3842 20.7932 40.778 20.1923C40.1717 19.5913 39.3503 19.2525 38.4929 19.25Z" fill="black"/>
<path d="M67.2147 26.4688C71.9066 26.4688 75.7102 22.6981 75.7102 18.0469C75.7102 13.3956 71.9066 9.625 67.2147 9.625C62.5228 9.625 58.7192 13.3956 58.7192 18.0469C58.7192 22.6981 62.5228 26.4688 67.2147 26.4688Z" fill="#5059C9"/>
<path d="M74.4967 28.875H55.4159C55.0039 28.875 54.6088 29.0372 54.3175 29.3261C54.0261 29.6149 53.8625 30.0066 53.8625 30.415V49.9297C53.8099 52.754 54.7377 55.5105 56.4907 57.7375C58.2436 59.9646 60.7152 61.527 63.4915 62.1631C65.2597 62.5309 67.0884 62.5031 68.8445 62.0819C70.6006 61.6606 72.2398 60.8565 73.6428 59.7279C75.0458 58.5994 76.1772 57.1749 76.9548 55.5582C77.7324 53.9414 78.1365 52.1732 78.1376 50.3821V32.4844C78.1376 31.5271 77.7541 30.609 77.0712 29.9322C76.3884 29.2553 75.4624 28.875 74.4967 28.875Z" fill="#5059C9"/>
<path d="M61.1467 32.4844V55.3437C61.1491 59.5801 59.7409 63.6987 57.1406 67.0605C54.5404 70.4223 50.8935 72.8392 46.7659 73.9362C42.6383 75.0332 38.2609 74.7489 34.313 73.1275C30.365 71.506 27.0674 68.6381 24.9318 64.9687C24.4647 64.1992 24.0589 63.3947 23.7181 62.5625C23.4004 61.7779 23.1329 60.9742 22.9171 60.1562C22.517 58.5827 22.3132 56.9665 22.3103 55.3437V32.4844C22.3097 32.0102 22.4034 31.5406 22.5862 31.1024C22.7689 30.6642 23.0371 30.266 23.3753 29.9308C23.7135 29.5955 24.1151 29.3296 24.5571 29.1485C24.9992 28.9673 25.4729 28.8744 25.9512 28.875H57.5058C57.9841 28.8744 58.4578 28.9673 58.8999 29.1485C59.3419 29.3296 59.7435 29.5955 60.0817 29.9308C60.42 30.266 60.6881 30.6642 60.8709 31.1024C61.0536 31.5406 61.1474 32.0102 61.1467 32.4844Z" fill="#7B83EB"/>
<path opacity="0.2" d="M38.4929 19.25H31.4927C32.4114 21.1702 33.8609 22.7926 35.6728 23.9286C37.4847 25.0646 39.5846 25.6676 41.7285 25.6675V22.4575C41.7259 21.6076 41.3842 20.7932 40.778 20.1923C40.1717 19.5913 39.3503 19.2525 38.4929 19.25Z" fill="black"/>
<path opacity="0.1" d="M44.1558 28.875V59.3622C44.1558 60.0876 43.9054 60.7911 43.4461 61.3558C42.9869 61.9205 42.3465 62.3124 41.6314 62.4663C41.4031 62.5336 41.1657 62.5661 40.9275 62.5625H23.7181C23.4004 61.7779 23.1329 60.9742 22.9171 60.1563C22.517 58.5827 22.3132 56.9665 22.3103 55.3438V32.4844C22.3097 32.0102 22.4034 31.5406 22.5862 31.1024C22.7689 30.6642 23.0371 30.266 23.3753 29.9308C23.7135 29.5955 24.1151 29.3296 24.5571 29.1485C24.9992 28.9673 25.4729 28.8744 25.9512 28.875H44.1558Z" fill="black"/>
<path opacity="0.2" d="M41.7285 28.875V61.7684C41.732 62.0046 41.6993 62.2399 41.6314 62.4662C41.4762 63.1751 41.0809 63.8099 40.5113 64.2652C39.9416 64.7205 39.2319 64.9688 38.5002 64.9687H24.9318C24.4647 64.1992 24.0589 63.3946 23.7181 62.5625C23.4004 61.7779 23.1329 60.9742 22.9171 60.1562C22.517 58.5827 22.3132 56.9665 22.3103 55.3437V32.4844C22.3097 32.0102 22.4034 31.5406 22.5862 31.1024C22.7689 30.6642 23.0371 30.266 23.3753 29.9308C23.7135 29.5955 24.1151 29.3296 24.5571 29.1485C24.9992 28.9673 25.4729 28.8744 25.9512 28.875H41.7285Z" fill="black"/>
<path opacity="0.2" d="M41.7285 28.875V56.9559C41.7247 57.8035 41.3833 58.6154 40.7787 59.2147C40.1741 59.8141 39.3552 60.1525 38.5002 60.1563H22.9171C22.517 58.5827 22.3132 56.9665 22.3103 55.3438V32.4844C22.3097 32.0102 22.4034 31.5406 22.5862 31.1024C22.7689 30.6642 23.0371 30.266 23.3753 29.9308C23.7135 29.5955 24.1151 29.3296 24.5571 29.1485C24.9992 28.9673 25.4729 28.8744 25.9512 28.875H41.7285Z" fill="black"/>
<path opacity="0.2" d="M25.9512 28.875C25.4729 28.8744 24.9992 28.9673 24.5571 29.1485C24.1151 29.3296 23.7135 29.5955 23.3753 29.9308C23.0371 30.266 22.7689 30.6642 22.5862 31.1024C22.4034 31.5406 22.3097 32.0102 22.3103 32.4844V55.3438C22.3132 56.9665 22.517 58.5827 22.9171 60.1563H36.073C36.928 60.1525 37.7469 59.8141 38.3515 59.2147C38.956 58.6154 39.2974 57.8035 39.3012 56.9559V28.875H25.9512Z" fill="black"/>
<path d="M3.7004 19.25H36.0657C36.9238 19.25 37.7468 19.5879 38.3536 20.1895C38.9604 20.791 39.3012 21.6068 39.3012 22.4575V54.5425C39.3012 55.3932 38.9604 56.209 38.3536 56.8105C37.7468 57.4121 36.9238 57.75 36.0657 57.75H3.7004C2.84228 57.75 2.0193 57.4121 1.41252 56.8105C0.805732 56.209 0.464844 55.3932 0.464844 54.5425L0.464844 22.4575C0.464844 21.6068 0.805732 20.791 1.41252 20.1895C2.0193 19.5879 2.84228 19.25 3.7004 19.25Z" fill="#4B53BC"/>
<path d="M29.5435 31.221H22.286V50.5191H17.5237V31.221H10.2224V26.4807H29.5435V31.221Z" fill="white"/>
</g>
<defs>
<clipPath id="clip0_4470_3162">
<rect width="79" height="77" fill="white"/>
</clipPath>
</defs>
</svg>
