<svg width="65" height="66" viewBox="0 0 65 66" fill="none" xmlns="http://www.w3.org/2000/svg">
<g clip-path="url(#clip0_4470_3146)">
<path fill-rule="evenodd" clip-rule="evenodd" d="M0 7.35981L38.1246 0.0111084L37.9923 65.9891L0 58.1215V7.35981ZM13.518 41.6223C10.6348 38.2546 9.8313 32.9624 11.2115 28.5663C13.1305 22.4534 17.9988 20.3875 22.0732 21.8025C24.3986 22.6138 26.4689 24.5665 27.5749 27.557C28.1043 28.9908 28.3879 30.6323 28.4068 32.302C28.4446 35.3019 27.4047 38.83 25.3439 41.2921C22.1771 45.0655 16.8077 45.4523 13.5275 41.6223H13.518ZM16.4863 38.4244C15.0684 36.3207 14.6808 33.019 15.3519 30.2738C16.2878 26.4627 18.6795 25.1703 20.6741 26.057C21.8179 26.5664 22.8294 27.7834 23.3682 29.6512C23.6235 30.5474 23.7653 31.5662 23.7747 32.6133C23.7936 34.4811 23.2832 36.6886 22.2717 38.2263C20.7213 40.5846 18.0934 40.8205 16.4863 38.4338V38.4244ZM40.6108 13.9161H62.7407C63.9791 13.9161 64.9905 14.9255 64.9905 16.1613V16.9726L47.5967 28.6795C47.3698 28.8305 46.8121 29.2644 46.3489 29.5569C45.6683 30.0002 45.621 29.9153 44.9026 29.5097C43.7965 28.8965 41.887 27.5947 40.6014 26.7079V13.9161H40.6108ZM65 22.1704V45.7919C65 47.6786 63.4497 49.2352 61.5496 49.2352H40.6108V31.7643C41.8681 32.5944 43.5413 33.6887 44.5717 34.3208C45.4036 34.8302 45.5548 35.066 46.4812 34.5283C46.9066 34.283 47.3226 33.9623 47.6062 33.7736L65 22.1799V22.1704Z" fill="#0072C6"/>
</g>
<defs>
<clipPath id="clip0_4470_3146">
<rect width="65" height="66" fill="white"/>
</clipPath>
</defs>
</svg>
