<svg width="76" height="76" viewBox="0 0 76 76" fill="none" xmlns="http://www.w3.org/2000/svg">
<g clip-path="url(#clip0_4470_3069)">
<path fill-rule="evenodd" clip-rule="evenodd" d="M27.8645 0C23.6634 0.00309888 20.2633 3.40567 20.2664 7.59845C20.2633 11.7912 23.6665 15.1938 27.8676 15.1969H35.4689V7.60155C35.472 3.40877 32.0688 0.00619776 27.8645 0C27.8676 0 27.8676 0 27.8645 0V0ZM27.8645 20.2667H7.60076C3.39959 20.2698 -0.00358488 23.6723 -0.000479795 27.8651C-0.00668996 32.0579 3.39648 35.4605 7.59766 35.4667H27.8645C32.0657 35.4636 35.4689 32.061 35.4658 27.8682C35.4689 23.6723 32.0657 20.2698 27.8645 20.2667Z" fill="#36C5F0"/>
<path fill-rule="evenodd" clip-rule="evenodd" d="M76 27.8651C76.0031 23.6723 72.5999 20.2698 68.3987 20.2667C64.1975 20.2698 60.7944 23.6723 60.7975 27.8651V35.4667H68.3987C72.5999 35.4636 76.0031 32.061 76 27.8651ZM55.7331 27.8651V7.59845C55.7362 3.40877 52.3361 0.00619776 48.1349 0C43.9338 0.00309888 40.5306 3.40567 40.5337 7.59845V27.8651C40.5275 32.0579 43.9307 35.4605 48.1318 35.4667C52.333 35.4636 55.7362 32.061 55.7331 27.8651Z" fill="#2EB67D"/>
<path fill-rule="evenodd" clip-rule="evenodd" d="M48.1315 76.0001C52.3327 75.997 55.7359 72.5944 55.7328 68.4016C55.7359 64.2088 52.3327 60.8062 48.1315 60.8031H40.5303V68.4016C40.5272 72.5913 43.9303 75.9939 48.1315 76.0001ZM48.1315 55.7303H68.3984C72.5996 55.7272 76.0027 52.3246 75.9996 48.1318C76.0059 43.939 72.6027 40.5365 68.4015 40.5303H48.1346C43.9334 40.5334 40.5303 43.9359 40.5334 48.1287C40.5303 52.3246 43.9303 55.7272 48.1315 55.7303Z" fill="#ECB22E"/>
<path fill-rule="evenodd" clip-rule="evenodd" d="M2.12314e-06 48.1319C-0.00310296 52.3247 3.40007 55.7273 7.60124 55.7304C11.8024 55.7273 15.2056 52.3247 15.2025 48.1319V40.5334H7.60124C3.40007 40.5365 -0.00310296 43.9391 2.12314e-06 48.1319ZM20.2669 48.1319V68.3986C20.2607 72.5914 23.6638 75.9939 27.865 76.0001C32.0662 75.997 35.4694 72.5945 35.4663 68.4017V48.1381C35.4725 43.9453 32.0693 40.5427 27.8681 40.5365C23.6638 40.5365 20.2638 43.9391 20.2669 48.1319C20.2669 48.135 20.2669 48.1319 20.2669 48.1319Z" fill="#E01E5A"/>
</g>
<defs>
<clipPath id="clip0_4470_3069">
<rect width="76" height="76" fill="white"/>
</clipPath>
</defs>
</svg>
