<svg width="28" height="28" viewBox="0 0 28 28" fill="none" xmlns="http://www.w3.org/2000/svg">
<path d="M24 0H4C2.93913 0 1.92172 0.421427 1.17157 1.17157C0.421427 1.92172 0 2.93913 0 4V24C0 25.0609 0.421427 26.0783 1.17157 26.8284C1.92172 27.5786 2.93913 28 4 28H24C25.0609 28 26.0783 27.5786 26.8284 26.8284C27.5786 26.0783 28 25.0609 28 24V4C28 2.93913 27.5786 1.92172 26.8284 1.17157C26.0783 0.421427 25.0609 0 24 0ZM20.35 10.75V11.15C20.3458 12.8311 19.8885 14.4799 19.0262 15.923C18.1639 17.366 16.9285 18.5499 15.45 19.35C13.9802 20.1406 12.3278 20.5293 10.6597 20.4766C8.99158 20.4239 7.36695 19.9318 5.95 19.05H6.75C8.23312 19.045 9.67358 18.5532 10.85 17.65C10.1572 17.6406 9.48504 17.4133 8.92864 17.0005C8.37224 16.5877 7.95988 16.0103 7.75 15.35C7.95 15.35 8.15 15.45 8.35 15.45C8.65345 15.4663 8.95752 15.4325 9.25 15.35C8.51163 15.2032 7.84772 14.8031 7.37299 14.2188C6.89827 13.6345 6.64254 12.9028 6.65 12.15C7.10273 12.421 7.62242 12.5596 8.15 12.55C7.4447 12.0912 6.93921 11.3825 6.73514 10.5662C6.53108 9.74996 6.64357 8.88671 7.05 8.15C7.88336 9.15995 8.91894 9.98424 10.0901 10.5698C11.2612 11.1554 12.542 11.4893 13.85 11.55C13.768 11.3263 13.7339 11.0878 13.75 10.85C13.7516 10.1829 13.9523 9.53151 14.3265 8.97922C14.7006 8.42693 15.2311 7.99891 15.85 7.75C16.4595 7.49714 17.1322 7.43828 17.7763 7.58144C18.4205 7.72459 19.0049 8.06279 19.45 8.55C20.203 8.45142 20.9223 8.1774 21.55 7.75C21.3211 8.502 20.8225 9.14299 20.15 9.55C20.8068 9.49032 21.4489 9.32133 22.05 9.05C21.5346 9.66567 20.9657 10.2346 20.35 10.75Z" fill="#150B28"/>
</svg>
