<svg width="66" height="66" viewBox="0 0 66 66" fill="none" xmlns="http://www.w3.org/2000/svg">
<g clip-path="url(#clip0_4470_3227)">
<path d="M61.3088 32.9992C61.3088 44.2053 54.7968 53.8885 45.3538 58.478L58.8579 21.478C60.4767 25.1031 61.3119 29.0291 61.3088 32.9992ZM13.8882 31.5707C13.8882 28.072 15.145 25.649 16.2229 23.7631C17.6579 21.4312 19.0024 19.4564 19.0024 17.1245C19.0024 14.5221 17.0293 12.0997 14.2492 12.0997C14.1236 12.0997 14.0046 12.1153 13.8818 12.1223C18.9189 7.50806 25.6292 4.6908 32.9993 4.6908C42.8894 4.6908 51.5906 9.76511 56.6525 17.4509C55.9883 17.4708 55.3619 17.4843 54.8307 17.4843C51.8696 17.4843 47.2861 17.125 47.2861 17.125C45.76 17.0351 45.5801 19.2765 47.104 19.4569C47.104 19.4569 48.6381 19.6374 50.3447 19.7268L40.0355 50.3909L33.8397 31.8104L38.2509 19.7263C39.7753 19.6369 41.2195 19.4564 41.2195 19.4564C42.745 19.367 42.5662 17.0345 41.0407 17.1245C41.0407 17.1245 36.3655 17.4838 33.5838 17.4838C30.6232 17.4838 26.0391 17.1245 26.0391 17.1245C24.512 17.0345 24.3326 19.2759 25.8576 19.4564C25.8576 19.4564 27.3944 19.6369 29.0977 19.7263L18.8672 50.1581L16.044 40.7222C14.8196 36.8066 13.8882 33.9941 13.8882 31.5707Z" fill="#00749A"/>
<path d="M32.5028 35.4755L40.9966 60.1565C38.3998 60.9218 35.7066 61.3104 32.9994 61.3104C29.7027 61.3104 26.5412 60.7399 23.5985 59.7057C23.6774 59.5821 23.7448 59.4515 23.7999 59.3157L32.5028 35.4755ZM8.15898 19.4171C8.03724 20.3189 7.96828 21.2874 7.96828 22.3281C7.96828 25.2009 8.5048 28.4302 10.1208 32.4681L18.7682 57.4696C10.3519 52.5618 4.69099 43.4436 4.69099 32.9993C4.68344 28.2519 5.87641 23.5797 8.15898 19.4171Z" fill="#00749A"/>
<path d="M32.9985 0C51.1944 0 65.9988 14.8033 65.9988 32.9992C65.9988 51.1972 51.1949 66.0005 32.9985 66.0005C14.8031 66.0005 -0.00340271 51.1978 -0.00340271 32.9992C-0.00286102 14.8033 14.8031 0 32.9985 0ZM32.9985 64.4874C50.36 64.4874 64.4856 50.3617 64.4856 32.9992C64.4856 15.6383 50.3605 1.51368 32.9985 1.51368C15.6376 1.51368 1.51297 15.6383 1.51297 32.9992C1.51297 50.3617 15.6381 64.4874 32.9985 64.4874Z" fill="#00749A"/>
</g>
<defs>
<clipPath id="clip0_4470_3227">
<rect width="66" height="66" fill="white" transform="matrix(-1 0 0 1 66 0)"/>
</clipPath>
</defs>
</svg>
