<svg width="24" height="24" viewBox="0 0 24 24" fill="none" xmlns="http://www.w3.org/2000/svg">
<g clip-path="url(#clip0_4470_2835)">
<path d="M5.704 2.979C6.398 3.492 6.961 4.143 7.471 4.999C7.917 5.746 8.908 7.826 8 9C6.973 10.328 4 10.776 4 12C4 12.921 5.304 13.972 6 15C7.047 16.546 6.571 18.044 6 19C5.704 19.496 5.231 19.92 4.707 20.234" stroke="#462686" stroke-width="2" stroke-miterlimit="10"/>
<path d="M20.668 5.22718C18.509 6.26218 15.542 6.96118 15 7.00018C13.955 7.07518 13.8 6.21618 13 5.00018C12.4 4.08818 11 2.94718 11 2.00018C11 1.62918 11.036 1.32818 11.131 1.03418" stroke="#462686" stroke-width="2" stroke-miterlimit="10"/>
<path d="M12 23C18.0751 23 23 18.0751 23 12C23 5.92487 18.0751 1 12 1C5.92487 1 1 5.92487 1 12C1 18.0751 5.92487 23 12 23Z" stroke="#462686" stroke-width="2" stroke-miterlimit="10" stroke-linecap="square"/>
<path d="M19.014 12.9028C19.056 15.9868 15.042 19.8328 13 18.9998C11.21 18.2698 12.473 16.8618 12.014 12.9028C11.823 11.2568 13.581 9.90283 15.514 9.90283C17.447 9.90283 18.992 11.2468 19.014 12.9028Z" stroke="#462686" stroke-width="2" stroke-miterlimit="10"/>
</g>
<defs>
<clipPath id="clip0_4470_2835">
<rect width="24" height="24" fill="white"/>
</clipPath>
</defs>
</svg>
