<svg width="80" height="80" viewBox="0 0 80 80" fill="none" xmlns="http://www.w3.org/2000/svg">
<path d="M41.4166 61.9747L28.3033 61.7352C24.0575 61.6518 19.8011 61.8183 15.6386 60.9539C9.30636 59.6624 8.85777 53.3298 8.38836 48.0179C7.74156 40.5501 7.99196 32.9467 9.21255 25.5412C9.90161 21.386 12.6133 18.9065 16.807 18.6367C30.9635 17.6575 45.2141 17.7735 59.3393 18.2304C60.8311 18.2722 62.3331 18.5011 63.8041 18.7617C71.0652 20.0324 71.2422 27.2087 71.7129 33.2498C72.1823 39.3532 71.9841 45.4879 71.087 51.5498C70.3672 56.5688 68.99 60.7778 63.1781 61.1841C55.8962 61.7154 48.7814 62.1431 41.479 62.0069C41.4794 61.9747 41.4374 61.9747 41.4166 61.9747ZM33.7072 49.2678C39.1948 46.1222 44.5776 43.0289 50.0337 39.9043C44.536 36.7586 39.1634 33.6653 33.7072 30.5408V49.2678Z" fill="#FF0000"/>
</svg>
