<svg width="78" height="62" viewBox="0 0 78 62" fill="none" xmlns="http://www.w3.org/2000/svg">
<g clip-path="url(#clip0_4470_3191)">
<path d="M12.0234 42.7471L7.94321 44.2296L7.72607 56.2989L21.8496 51.1682C17.0013 49.5536 13.4656 46.7079 12.0234 42.7471Z" fill="#FDBD39"/>
<path d="M14.1591 29.9817L0 35.1253L7.94324 44.2328L12.0234 42.7504C10.5845 38.8025 11.4725 34.3453 14.1591 29.9817Z" fill="#F69833"/>
<path d="M37.9823 12.5623C19.9537 19.111 8.32886 32.6274 12.0234 42.747L77.3097 19.0305C73.6151 8.91091 56.011 6.01363 37.9823 12.5623Z" fill="#FECF33"/>
<path d="M51.3476 49.2183C69.3763 42.6696 81.0205 29.2145 77.3065 19.0337L12.0203 42.747C15.7342 52.931 33.3189 55.767 51.3476 49.2183Z" fill="#EE6723"/>
<path d="M77.3065 19.0306L12.0234 42.7471C13.3003 46.2535 18.1778 47.9809 25.0159 47.9809C31.6855 47.9809 40.2218 46.3405 49.1211 43.1081C67.1497 36.5594 79.8311 25.9532 77.3065 19.0306Z" fill="#F69833"/>
<path d="M64.314 13.8C57.6476 13.8 49.108 15.4404 40.2088 18.6729C22.1801 25.2216 9.49877 35.8246 12.0234 42.7471L77.3096 19.0306C76.0295 15.5242 71.1553 13.8 64.314 13.8Z" fill="#FDBD39"/>
<path d="M60.7069 56.9404C58.7851 56.9404 55.9526 55.2162 52.284 51.8129C47.9445 47.7876 42.9764 41.8899 38.2869 35.2091C33.6007 28.5283 29.7506 21.8506 27.4431 16.4009C24.9315 10.4645 24.5718 6.81634 26.3769 5.55301C26.795 5.2694 27.2908 5.12437 27.7964 5.13727C29.2645 5.13727 32.1293 6.22334 37.4216 11.4056L37.5383 11.5184L37.5221 11.6795C37.4864 12.0534 37.454 12.4272 37.4248 12.7978L37.3665 13.5294L36.848 13.0105C31.1441 7.29653 28.6357 6.68098 27.8191 6.68098C27.5857 6.68098 27.401 6.7261 27.2681 6.81956C26.4838 7.36743 26.432 10.0488 28.8691 15.8015C31.1344 21.1513 34.9294 27.729 39.5541 34.3228C44.1819 40.9199 49.0756 46.7273 53.3405 50.6817C57.936 54.9455 60.0069 55.4063 60.6842 55.4063C60.9175 55.4063 61.1055 55.358 61.2481 55.2581C62.0745 54.6812 62.0745 51.8097 59.3587 45.6155L59.2323 45.3319L59.5045 45.1836C59.7768 45.0354 60.0425 44.8904 60.2888 44.7486L60.6161 44.5649L60.7684 44.9065C62.6935 49.2959 64.4954 54.8746 62.1328 56.5246C61.7148 56.8082 61.2157 56.9533 60.7069 56.9404ZM60.7069 56.2636V56.602V56.2636Z" fill="#EE6723"/>
<path d="M51.785 49.0315L51.7591 49.3667C51.3022 54.9744 50.1031 61.7164 46.9724 61.9904C46.9076 61.9968 46.8428 61.9968 46.7812 61.9968C44.6552 61.9968 42.6427 58.9674 40.8052 52.9956C39.0616 47.3428 37.7102 39.7564 37.0004 31.6317C36.2875 23.5071 36.2972 15.8014 37.0296 9.93268C37.8268 3.53867 39.3436 0.199862 41.5408 0.00649454C41.6056 4.89603e-05 41.6737 -0.00317383 41.7385 -0.00317383C43.2811 -0.00317383 45.6048 1.73391 47.9836 9.82311L46.4312 10.1196C45.6372 7.41891 44.7719 5.22097 43.9131 3.70626C43.1191 2.31079 42.3445 1.54054 41.7385 1.54054C41.7191 1.54054 41.6996 1.54054 41.6769 1.54376C40.7241 1.62756 39.3371 3.92218 38.5658 10.1228C37.8463 15.8852 37.8366 23.4781 38.5398 31.4964C39.2431 39.5179 40.5718 46.9915 42.283 52.5412C43.0478 55.0259 43.8872 57.0756 44.7136 58.4646C45.4719 59.7473 46.2076 60.4531 46.7812 60.4531C46.8007 60.4531 46.8201 60.4531 46.8396 60.4499C47.7502 60.3725 49.4679 57.9812 50.1906 49.573L51.785 49.0315Z" fill="#EE6723"/>
</g>
<defs>
<clipPath id="clip0_4470_3191">
<rect width="78" height="62" fill="white"/>
</clipPath>
</defs>
</svg>
